<?xml version='1.0' encoding='utf-8'?>
<svg xmlns="http://www.w3.org/2000/svg"><!--
    This Source Code Form is subject to the terms of the Mozilla Public
    License, v. 2.0. If a copy of the MPL was not distributed with this
    file, You can obtain one at http://mozilla.org/MPL/2.0/.
--><defs><symbol id="webvr" viewBox="0 0 16 16"><path d="M13.5 3h-11A2.5 2.5 0 0 0 0 5.5v5A2.5 2.5 0 0 0 2.5 13h3.02a1.987 1.987 0 0 0 1.562-.751.965.965 0 0 0 .1-.146l.384-.7a.5.5 0 0 1 .878 0l.383.7a.965.965 0 0 0 .1.146A1.987 1.987 0 0 0 10.48 13h3.02a2.5 2.5 0 0 0 2.5-2.5v-5A2.5 2.5 0 0 0 13.5 3zm.5 7.5a.5.5 0 0 1-.5.5h-3l-.3-.556a2.5 2.5 0 0 0-4.392 0L5.5 11h-3a.5.5 0 0 1-.5-.5v-5a.5.5 0 0 1 .5-.5h11a.5.5 0 0 1 .5.5z" fill="currentColor" /><path d="M12.5 6h-9a.5.5 0 0 0 0 1h9a.5.5 0 0 0 0-1z" fill="currentColor" /></symbol><symbol id="send-to-device" viewBox="0 0 16 16"><path d="M12 0H4a2 2 0 0 0-2 2v2a1 1 0 0 0 1 1 1 1 0 0 0 1-1V2.5a.5.5 0 0 1 .5-.5h7a.5.5 0 0 1 .5.5v10a.5.5 0 0 1-.5.5h-7a.5.5 0 0 1-.5-.5V11a1 1 0 0 0-1-1 1 1 0 0 0-1 1v3a2 2 0 0 0 2 2h8a2 2 0 0 0 2-2V2a2 2 0 0 0-2-2zM9 15H7v-1h2z" fill="currentColor" /><path d="M5.146 10.146a.5.5 0 1 0 .707.707l3-3a.5.5 0 0 0 0-.708l-3-3a.5.5 0 0 0-.707.707L7.293 7H.5a.5.5 0 0 0 0 1h6.793z" fill="currentColor" /></symbol><symbol id="zoom-in" viewBox="0 0 16 16"><rect fill="currentColor" height="2" rx="1" width="12" x="2" y="7" /></symbol><symbol id="copy" viewBox="0 0 16 16"><path d="M14.707 8.293l-3-3A1 1 0 0 0 11 5h-1V4a1 1 0 0 0-.293-.707l-3-3A1 1 0 0 0 6 0H3a2 2 0 0 0-2 2v7a2 2 0 0 0 2 2h3v3a2 2 0 0 0 2 2h5a2 2 0 0 0 2-2V9a1 1 0 0 0-.293-.707zM12.586 9H11V7.414zm-5-5H6V2.414zM6 7v2H3V2h2v2.5a.5.5 0 0 0 .5.5H8a2 2 0 0 0-2 2zm2 7V7h2v2.5a.5.5 0 0 0 .5.5H13v4z" fill="currentColor" /></symbol><symbol fill="currentColor" fill-opacity="" id="cryptominers" viewBox="0 0 16 16"><path d="M13 2H9v-.5a.5.5 0 0 0-.5-.5h-1a.5.5 0 0 0-.5.5V2H5a2 2 0 0 0-1.6.8L2.2 4.4A1 1 0 0 0 3 6h4v8.5a.5.5 0 0 0 .5.5h1a.5.5 0 0 0 .5-.5V6h4z" /></symbol><symbol id="chapter" viewBox="0 0 32 32"><path d="M10.19 2.53H6.32A3.87 3.87 0 0 0 2.45 6.4v3.87a3.87 3.87 0 0 0 3.87 3.87h3.87a3.87 3.87 0 0 0 3.87-3.87V6.4a3.87 3.87 0 0 0-3.87-3.87zm0 15.49H6.32a3.87 3.87 0 0 0-3.87 3.87v3.87a3.87 3.87 0 0 0 3.87 3.87h3.87a3.87 3.87 0 0 0 3.87-3.87v-3.87A3.87 3.87 0 0 0 10.19 18zM25.68 2.53h-3.87a3.87 3.87 0 0 0-3.87 3.87v3.87a3.87 3.87 0 0 0 3.87 3.87h3.87a3.87 3.87 0 0 0 3.87-3.87V6.4a3.87 3.87 0 0 0-3.87-3.87zm0 15.49h-3.87a3.87 3.87 0 0 0-3.87 3.87v3.87a3.87 3.87 0 0 0 3.87 3.87h3.87a3.87 3.87 0 0 0 3.87-3.87v-3.87A3.87 3.87 0 0 0 25.68 18z" /></symbol><symbol id="notification-disabled" viewBox="0 0 16 16"><path d="M15.961 3.039L14 5v4.577a.423.423 0 0 1-.423.423H12a1 1 0 0 0-1 1v1.194l-1.491-1.827a.978.978 0 0 0-.558-.318L7 12h1.26l2.966 3.633A1 1 0 0 0 13 15v-3h.577A2.426 2.426 0 0 0 16 9.577V3.423a2.4 2.4 0 0 0-.039-.384zm-1.254-1.746A1.013 1.013 0 0 0 14 1H2.423A2.426 2.426 0 0 0 0 3.423v6.154A2.426 2.426 0 0 0 2.423 12h.163l-1.293 1.293a1 1 0 1 0 1.414 1.414l12-12a1 1 0 0 0 0-1.414zM2.423 10A.423.423 0 0 1 2 9.577V3.423A.423.423 0 0 1 2.423 3h9.163l-2 2H4.5a.5.5 0 0 0 0 1h4.086l-1 1H4.5a.5.5 0 0 0 0 1h2.086l-2 2z" fill="currentColor" /></symbol><symbol id="pause" viewBox="0 0 16 16"><rect height="10" rx="1" width="3" x="4" y="3" /><rect height="10" rx="1" width="3" x="9" y="3" /></symbol><symbol id="login" viewBox="0 0 16 16"><path d="M12 4a4 4 0 0 0-3.86 3H1a1 1 0 0 0 0 2v1a1 1 0 0 0 2 0V9h1v1a1 1 0 0 0 2 0V9h2.14A4 4 0 1 0 12 4zm0 6a2 2 0 1 1 2-2 2 2 0 0 1-2 2z" fill="currentColor" fill-opacity="" /></symbol><symbol id="more" viewBox="0 0 16 16"><path d="M2 6a2 2 0 1 0 2 2 2 2 0 0 0-2-2zm6 0a2 2 0 1 0 2 2 2 2 0 0 0-2-2zm6 0a2 2 0 1 0 2 2 2 2 0 0 0-2-2z" fill="currentColor" /></symbol><symbol fill="currentColor" id="dock-bottom" viewBox="0 0 16 16"><path d="M13 1a3 3 0 0 1 3 3v8a3 3 0 0 1-3 3H3a3 3 0 0 1-3-3V4a3 3 0 0 1 3-3zm0 2H3a1 1 0 0 0-1 1v5h12V4a1 1 0 0 0-1-1zm1 7H2v2a1 1 0 0 0 1 1h10a1 1 0 0 0 1-1z" /></symbol><symbol fill="#0b0b0b" id="developer-command-rulers" viewBox="0 0 16 16"><path d="M11.4 3c-.2 0-.4.2-.4.4v2.5c0 .2.3.4.5.4s.5-.2.5-.4V3.4c0-.2-.3-.4-.5-.4m2 .2c-.2 0-.5.2-.5.4v1.5c0 .2.3.4.5.4s.5-.2.5-.4V3.6c0-.2-.3-.4-.5-.4m-3.9 0c-.2 0-.6.2-.6.4v1.5c0 .2.3.4.6.4.2 0 .4-.2.4-.4V3.6c0-.2-.2-.4-.4-.4M7.4 3c-.2 0-.4.2-.4.4v2.5c0 .2.3.4.5.4s.5-.2.5-.4V3.4c0-.2-.2-.4-.6-.4m-1.9.2c-.3 0-.5.2-.5.4v1.5c0 .2.3.4.5.4s.5-.2.5-.4V3.6c0-.2-.3-.4-.5-.4M4.3 8.5c0-.2-.2-.5-.4-.5H2.4c-.2 0-.4.3-.4.5s.2.5.4.5h1.5c.2 0 .4-.3.4-.5m0 4c0-.2-.2-.5-.4-.5H2.4c-.2 0-.4.3-.4.5s.2.5.4.5h1.5c.2 0 .4-.3.4-.5m.8-2c0-.2-.2-.5-.4-.5H3.2c-.2 0-.4.3-.4.5s.2.5.4.5h1.5c.2 0 .4-.3.4-.5m0-4c0-.2-.2-.5-.4-.5H3.2c-.2 0-.4.3-.4.5s.2.5.4.5h1.5c.2 0 .4-.3.4-.5" /><path d="M15.1 3H3.5C2.9 3 2 3.6 2 4.1V14c0 .6 1 1 1.5 1h3.2c.6 0 1.3-.5 1.3-1V9h7c.6 0 1-.4 1-.9v-4c0-1-.4-1.1-.9-1.1zM15 8H7.4c-.6 0-.5.1-.4 0v6H3V4h12v4z" /></symbol><symbol id="store-data-disabled" viewBox="0 0 16 16"><path d="M10.293 11.293L9 12.586V10l-2 2v.586l-.293-.293-1.414 1.414 2 2a1 1 0 0 0 1.414 0l3-3a1 1 0 0 0-1.414-1.414zM13 8h-1a1 1 0 0 0 0 2h2a1 1 0 0 0 1-1V4l-2 2zm1.707-6.707A1.016 1.016 0 0 0 14 1H2a1 1 0 0 0-1 1v7a1 1 0 0 0 1 1h2a1 1 0 0 0 0-2H3V3h8.586L1.293 13.293a1 1 0 1 0 1.414 1.414l12-12a1 1 0 0 0 0-1.414z" fill="currentColor" /></symbol><symbol fill="currentColor" fill-opacity="" id="trackers" viewBox="0 0 16 16"><path d="M4.414 0C2.8.2 1.766 2.521 2.045 4.742c.143 1.133.828 1.675 1.028 3.707l.052.536A18.56 18.56 0 0 0 6.6 8.8a4.988 4.988 0 0 1-.055-1.01 25.267 25.267 0 0 0 .432-3.949C6.724 1.833 5.853-.177 4.414 0zm2.352 9.771A18.373 18.373 0 0 1 3.854 10c-.221 0-.432 0-.636-.01a8.709 8.709 0 0 0 .2 1.351c.165.659.71 1.8 1.944 1.635a1.675 1.675 0 0 0 1.58-2.076 14.287 14.287 0 0 0-.176-1.129zM11.588 3c-1.439-.18-2.311 1.83-2.564 3.838a25.267 25.267 0 0 0 .432 3.949 4.938 4.938 0 0 1-.058 1 18.45 18.45 0 0 0 3.478.193l.052-.537c.2-2.032.885-2.574 1.028-3.707C14.235 5.521 13.2 3.2 11.588 3zm-2.352 9.767c-.069.365-.136.737-.177 1.13a1.675 1.675 0 0 0 1.579 2.079c1.235.16 1.779-.976 1.944-1.635a8.594 8.594 0 0 0 .2-1.35c-.2.005-.4.009-.606.009a18.258 18.258 0 0 1-2.94-.233z" /></symbol><symbol id="arrowhead-right" viewBox="0 0 12 12"><path d="M9 6a1 1 0 0 0-.293-.707l-3-3a1 1 0 0 0-1.414 1.414L6.586 6 4.293 8.293a1 1 0 0 0 1.414 1.414l3-3A1 1 0 0 0 9 6z" fill="currentColor" /></symbol><symbol id="developer-debugging-workers" viewBox="0 0 16 16"><path d="M14.6 6.1L13.5 5c.1-.1.2-.4.2-.6 0-.2-.1-.4-.2-.6l-.4-.4c-.3-.3-.8-.3-1.1 0L10.5 2c-.2-.2-.3-.2-.5-.2s-.3.1-.5.2L8.3 3.2c-.2.1-.2.2-.2.4s.1.4.2.5l1.6 1.6-2.1 2.1-2.2-2.1 1.5-1.5c.2-.2.3-.4.3-.6 0-.2-.1-.4-.2-.6l-1-1c-.4-.3-.9-.3-1.2 0L.9 6.1c-.2.2-.3.4-.3.6 0 .2.1.4.2.6l1 1c.3.3.9.3 1.2 0l1.4-1.4 2 2.1L3 12.3c-.3.3-.3.8 0 1.1l.3.3c.3.3.8.3 1.1 0l3.3-3.4 3.3 3.4c.1.1.3.2.6.2.2 0 .4-.1.6-.2l.3-.3c.3-.3.3-.8 0-1.1L9 9l2-2.1 1.4 1.4c.1.1 2.3 1.1 2.7.7.4-.4-.3-2.7-.5-2.9z" /></symbol><symbol id="undo" viewBox="0 0 16 16"><path d="M16 11a1 1 0 0 1-2 0 5 5 0 0 0-9.584-2h2.588a1 1 0 0 1 0 2H2a1 1 0 0 1-1-1V5a1 1 0 1 1 2 0v2.392A7 7 0 0 1 16 11z" fill="currentColor" /></symbol><symbol id="location-win-disabled" viewBox="0 0 16 16"><path d="M14 7h-.091a5.931 5.931 0 0 0-.458-1.451l-1.559 1.559a3.972 3.972 0 0 1-4.784 4.784l-1.56 1.56A5.923 5.923 0 0 0 7 13.91V14a1 1 0 0 0 2 0v-.09A6 6 0 0 0 13.909 9H14a1 1 0 0 0 0-2zm.707-5.707a1 1 0 0 0-1.414 0l-1.826 1.826A5.955 5.955 0 0 0 9 2.09V2a1 1 0 0 0-2 0v.09A6 6 0 0 0 2.091 7H2a1 1 0 0 0 0 2h.091a5.963 5.963 0 0 0 1.029 2.467l-1.827 1.826a1 1 0 1 0 1.414 1.414l12-12a1 1 0 0 0 0-1.414zM4 8a3.976 3.976 0 0 1 6.02-3.434L8.512 6.074a1.974 1.974 0 0 0-2.438 2.438L4.566 10.02A3.961 3.961 0 0 1 4 8z" fill="currentColor" /></symbol><symbol fill="#0b0b0b" id="developer-tool-scratchpad" viewBox="0 0 16 16"><path d="M5 1.5a.5.5 0 0 0-1 0v2a.5.5 0 0 0 1 0v-2zm3.5 2v-2a.5.5 0 0 0-1 0v2a.5.5 0 0 0 1 0zm3.5 0v-2a.5.5 0 1 0-1 0v2a.5.5 0 1 0 1 0zM5 7h4a.5.5 0 0 0 0-1H5a.5.5 0 0 0 0 1zm0 4h2a.5.5 0 1 0 0-1H5a.5.5 0 1 0 0 1zm1-2h5a.5.5 0 1 0 0-1H6a.5.5 0 0 0 0 1z" /><path d="M3 3.996v9.008c0-.003 0-.004.002-.004h9.996c-.001 0 .002-.003.002.004V3.996c0 .003 0 .004-.002.004H3.002C3.003 4 3 4.003 3 3.996zm-1 0C2 3.446 2.456 3 3.002 3h9.996A.998.998 0 0 1 14 3.996v9.008c0 .55-.456.996-1.002.996H3.002A.998.998 0 0 1 2 13.004V3.996z" /></symbol><symbol id="home" viewBox="0 0 16 16"><path d="M15.7 7.3l-7-7c-.4-.4-1-.4-1.4 0l-7 7c-.4.4-.4 1 0 1.4.4.4 1 .4 1.4 0l.3-.3V13c0 1.7 1.3 3 3 3h6c1.7 0 3-1.3 3-3V8.4l.3.3c.2.2.4.3.7.3.3 0 .5-.1.7-.3.4-.4.4-1 0-1.4zM8 11.5c0-.3.2-.5.5-.5s.5.2.5.5-.2.5-.5.5-.5-.2-.5-.5zm4 1.5c0 .6-.4 1-1 1h-1V9c0-.6-.4-1-1-1H7c-.6 0-1 .4-1 1v5H5c-.6 0-1-.4-1-1V6.4l4-4 4 4V13z" /></symbol><symbol fill="currentColor" fill-opacity="" id="cookies-disabled" viewBox="0 0 16 16"><path d="M15.379 8a.142.142 0 0 0 .02 0 7.978 7.978 0 0 1-1.858-.356.981.981 0 0 1-.054.847 1 1 0 1 1-1.735-.994.981.981 0 0 1 .481-.407c-.069-.036-.13-.083-.2-.121l-5.42 5.418a.977.977 0 0 1-.4.476.85.85 0 0 1-.117.04l-2.065 2.066c.509.219 1 .24 1.161-.147-.424 1.025 2.823 1.668 2.822.558 0 1.11 3.246.461 2.821-.564.425 1.025 3.175-.816 2.39-1.6.785.784 2.621-1.97 1.6-2.394 1.021.424 1.664-2.822.554-2.822zm-5.073 5a1 1 0 1 1 1-1 1 1 0 0 1-1 1zm4.401-11.707a1 1 0 0 0-1.414 0L9.679 4.907A7.942 7.942 0 0 1 8 .61v.025C8-.474 4.753.174 5.179 1.2 4.753.174 2 2.016 2.788 2.8 2 2.016.167 4.77 1.193 5.193.167 4.77-.476 8.016.634 8.015c-1.11 0-.461 3.247.564 2.821-.639.265-.163 1.428.475 2.077l-.38.38a1 1 0 1 0 1.414 1.414l12-12a1 1 0 0 0 0-1.414zm-9 1.7a1 1 0 1 1-1 1A1 1 0 0 1 5.706 3zM2.524 7.508a1 1 0 1 1 .37 1.364 1 1 0 0 1-.37-1.364zm4.769-.215z" /></symbol><symbol id="list" viewBox="0 0 32 32"><path d="M4.06 20.37h3.5V18h-3.5zm0 5.83h3.5v-2.33h-3.5zm0-11.67h3.5v-2.32h-3.5zm0-5.83h3.5V6.37h-3.5zm5.84 5.84h18.66v-2.33H9.9zm0-8.17v2.34h18.66V6.37zm0 19.83h18.66v-2.33H9.9zm0-5.83h18.66V18H9.9z" fill-rule="evenodd" /></symbol><symbol id="plugin" viewBox="0 0 16 16"><rect fill="currentColor" height="10" rx="1" ry="1" width="14" x="1" y="4" /><path d="M6 1H3a1 1 0 0 0 0 2h3a1 1 0 0 0 0-2zm7 0h-3a1 1 0 0 0 0 2h3a1 1 0 0 0 0-2z" fill="currentColor" /></symbol><symbol fill="#0b0b0b" id="developer-debugger-step-out" viewBox="0 0 16 16"><path d="M5 13.5H1a.5.5 0 1 0 0 1h4a.5.5 0 1 0 0-1zm7 0H8a.5.5 0 1 0 0 1h4a.5.5 0 1 0 0-1zM6.11 5.012A.427.427 0 0 1 6.21 5h7.083L9.646 1.354a.5.5 0 1 1 .708-.708l4.5 4.5a.498.498 0 0 1 0 .708l-4.5 4.5a.5.5 0 0 1-.708-.708L13.293 6H6.5v5.5a.5.5 0 1 1-1 0v-6a.5.5 0 0 1 .61-.488z" /></symbol><symbol id="forward" viewBox="0 0 12 12"><path d="M11.707 5.293l-4.5-4.5a1 1 0 0 0-1.414 1.414L8.586 5H1a1 1 0 0 0 0 2h7.586L5.793 9.793a1 1 0 1 0 1.414 1.414l4.5-4.5a1 1 0 0 0 0-1.414z" fill="currentColor" /></symbol><symbol id="report-issues" viewBox="0 0 16 16"><path d="M8 0C4.3 0 2 2.107 2 5.5c0 2.372 2.065 4.268 3 5V14c0 1.476 1.616 2 3 2s3-.524 3-2v-3.5c.935-.736 3-2.632 3-5C14 2.107 11.7 0 8 0zm1 12H7v-1h2zm-1 2a3.086 3.086 0 0 1-1-.172V13h2v.828A3.047 3.047 0 0 1 8 14zm1.445-4.832A1 1 0 0 0 9 10H7a1 1 0 0 0-.444-.831C5.845 8.691 4 7.1 4 5.5 4 2.607 6.175 2 8 2s4 .607 4 3.5c0 1.6-1.845 3.191-2.555 3.668z" fill="currentColor" /></symbol><symbol id="subscribe" viewBox="0 0 16 16"><path d="M3.5 10A2.5 2.5 0 1 0 6 12.5 2.5 2.5 0 0 0 3.5 10zM2 1a1 1 0 0 0 0 2 10.883 10.883 0 0 1 11 11 1 1 0 0 0 2 0A12.862 12.862 0 0 0 2 1zm0 4a1 1 0 0 0 0 2 6.926 6.926 0 0 1 7 7 1 1 0 0 0 2 0 8.9 8.9 0 0 0-9-9z" fill="currentColor" /></symbol><symbol id="performance" viewBox="0 0 16 16"><path d="M8 1a8.009 8.009 0 0 0-8 8 7.917 7.917 0 0 0 .78 3.43 1 1 0 1 0 1.8-.86A5.943 5.943 0 0 1 2 9a6 6 0 1 1 11.414 2.571 1 1 0 1 0 1.807.858A7.988 7.988 0 0 0 8 1z" fill="currentColor" /><path d="M11.769 7.078a.5.5 0 0 0-.69.153L8.616 11.1a2 2 0 1 0 .5 3.558 2.011 2.011 0 0 0 .54-.54 1.954 1.954 0 0 0-.2-2.479l2.463-3.871a.5.5 0 0 0-.15-.69z" fill="currentColor" /></symbol><symbol id="subitem" viewBox="0 0 16 16"><path d="M13.707 7.293l-3-3a1 1 0 0 0-1.414 1.414L10.586 7H6.012A.918.918 0 0 1 5 6V3a1 1 0 0 0-2 0v3a2.916 2.916 0 0 0 3 3h4.586l-1.293 1.293a1 1 0 1 0 1.414 1.414l3-3a1 1 0 0 0 0-1.414z" fill="currentColor" /></symbol><symbol id="close" viewBox="0 0 16 16"><path d="M9.061 8l3.47-3.47a.75.75 0 0 0-1.061-1.06L8 6.939 4.53 3.47a.75.75 0 1 0-1.06 1.06L6.939 8 3.47 11.47a.75.75 0 1 0 1.06 1.06L8 9.061l3.47 3.47a.75.75 0 0 0 1.06-1.061z" fill="currentColor" /></symbol><symbol fill="#0b0b0b" id="developer-command-screenshot" viewBox="0 0 16 16"><path d="M13.6 5H11V3.5C11 2.7 10 2 9.2 2H6.8C6 2 5 2.7 5 3.5V5H2.4C1.6 5 1 5.6 1 6.4v6.5c0 .8.6 1.1 1.4 1.1h11.2c.8 0 1.4-.3 1.4-1.1V6.4c0-.8-.6-1.4-1.4-1.4zm.4 8H2V6h4V3h4v3h3.9l.1 7z" /><path d="M8 6.8c-1.3 0-2.4 1.1-2.4 2.4s1.1 2.4 2.4 2.4 2.4-1.1 2.4-2.4c0-1.3-1.1-2.4-2.4-2.4zm0 3.5c-.7 0-1.2-.5-1.2-1.1S7.3 8.1 8 8.1s1.2.5 1.2 1.1-.5 1.1-1.2 1.1z" /></symbol><symbol id="download" viewBox="0 0 16 16"><path d="M7.293 12.707a1 1 0 0 0 1.414 0l5-5a1 1 0 0 0-1.414-1.414L9 9.586V1a1 1 0 1 0-2 0v8.586L3.707 6.293a1 1 0 0 0-1.414 1.414zM13 14H3a1 1 0 0 0 0 2h10a1 1 0 0 0 0-2z" fill="currentColor" /></symbol><symbol id="dictionaries" viewBox="0 0 16 16"><path d="M12 8a4 4 0 1 0 4 4 4 4 0 0 0-4-4zm2.2 4.46l-1.92 1.92a.38.38 0 0 1-.54 0L9.8 12.46a.38.38 0 0 1 .54-.54l1.27 1.27V9.88a.38.38 0 0 1 .77 0v3.3l1.27-1.27a.38.38 0 0 1 .54.54z" fill="#0c0c0d" /><path d="M6.93.64a1 1 0 0 0-1.86 0l-5 14a1 1 0 0 0 .61 1.28A1 1 0 0 0 1 16a1 1 0 0 0 .94-.66l1.58-4.43h3.6a5 5 0 0 1 2.34-3.19zM4.24 8.91L6 4l1.76 4.91z" fill="#0c0c0d" /></symbol><symbol fill="currentColor #0b0b0b" id="dock-side-left" viewBox="0 0 16 16"><path d="M0 4a3 3 0 0 1 3-3h10a3 3 0 0 1 3 3v8a3 3 0 0 1-3 3H3a3 3 0 0 1-3-3zm2 0v8a1 1 0 0 0 1 1h2V3H3a1 1 0 0 0-1 1zm4-1v10h7a1 1 0 0 0 1-1V4a1 1 0 0 0-1-1z" /></symbol><symbol id="cancel" viewBox="0 0 12 12"><path d="M4.586 6L3.293 7.293a1 1 0 0 0 1.414 1.414L6 7.414l1.293 1.293a1 1 0 0 0 1.414-1.414L7.414 6l1.293-1.293a1 1 0 0 0-1.414-1.414L6 4.586 4.707 3.293a1 1 0 0 0-1.414 1.414L4.586 6zM6 0a6 6 0 1 1 0 12A6 6 0 0 1 6 0z" fill="currentColor" /></symbol><symbol id="tracking-protection-disabled" viewBox="0 0 16 16"><path d="M10.513 11.382A4.221 4.221 0 0 1 8 12.987a4.267 4.267 0 0 1-1.41-.578l-1.436 1.437a6.221 6.221 0 0 0 2.734 1.148l.112.012.112-.012a6.244 6.244 0 0 0 4.012-2.427 9.26 9.26 0 0 0 1.8-5.286c.043-.518.063-1.421.076-2.281l-2 2a7.572 7.572 0 0 1-1.487 4.382zm4.194-10.089a1 1 0 0 0-1.414 0l-.537.537a1.808 1.808 0 0 0-.285-.077L8 .985l-4.473.768A1.845 1.845 0 0 0 2 3.575c0 1.025 0 2.867.08 3.706a10.2 10.2 0 0 0 1.079 4.146l-1.866 1.866a1 1 0 1 0 1.414 1.414l12-12a1 1 0 0 0 0-1.414zM4 7c-.049-.54 0-1.675 0-3.3l4-.687 3.048.523-6.4 6.4A9.517 9.517 0 0 1 4 7z" fill="currentColor" /></symbol><symbol id="narrate" viewBox="0 0 24 24"><rect height="8" rx=".5" ry=".5" width="2" x="1" y="8" /><rect height="14" rx=".5" ry=".5" width="2" x="4" y="5" /><rect height="8" rx=".5" ry=".5" width="2" x="7" y="8" /><rect height="16" rx=".5" ry=".5" width="2" x="10" y="4" /><rect height="20" rx=".5" ry=".5" width="2" x="13" y="2" /><rect height="16" rx=".5" ry=".5" width="2" x="16" y="4" /><rect height="10" rx=".5" ry=".5" width="2" x="19" y="7" /></symbol><symbol id="arrowhead-right" viewBox="0 0 16 16"><path d="M6 14a1 1 0 0 1-.707-1.707L9.586 8 5.293 3.707a1 1 0 0 1 1.414-1.414l5 5a1 1 0 0 1 0 1.414l-5 5A1 1 0 0 1 6 14z" fill="currentColor" /></symbol><symbol fill="#0b0b0b" id="developer-diff" viewBox="0 0 16 16"><path d="M6 13A5 5 0 1 0 6 3a5 5 0 0 0 0 10zm0-.91a4.09 4.09 0 1 1 0-8.18 4.09 4.09 0 0 1 0 8.18z" /><path d="M10 13a5 5 0 1 0 0-10 5 5 0 0 0 0 10zm0-.91a4.09 4.09 0 1 1 0-8.18 4.09 4.09 0 0 1 0 8.18z" /><path d="M7.146 8.854l1 1a.5.5 0 0 0 .708-.708l-1-1a.5.5 0 1 0-.708.708zm0-2l1 1a.5.5 0 1 0 .708-.708l-1-1a.5.5 0 1 0-.708.708z" /><path d="M12.656 11.723c-2.044 1.169-3.872 1.015-4.282.577-.41-.438 2.115-1.269 2.115-3.925 0-2.657-2.115-4.827-2.115-4.827s2.919-.47 4.282.624c1.364 1.094 2.12 1.975 1.85 3.828-.103.703.194 2.555-1.85 3.723z" fill-opacity=".3" /></symbol><symbol id="screenshot" viewBox="0 0 16 16"><path d="M4 0a2 2 0 0 0-2 2h2zm6 0H8v2h2zm4 0v2h2a2 2 0 0 0-2-2zM7 0H5v2h2zm6 0h-2v2h2zm1 5h2V3h-2zm0 6a2 2 0 0 0 2-2h-2zm0-3h2V6h-2zm-.441-2.167a2 2 0 0 0-2.785-.492L6.939 8.172l-1.968-1.38A2.457 2.457 0 0 0 5 6.5a2.488 2.488 0 0 0-1-1.989V3H2v1.05a2.5 2.5 0 1 0 1.958 4.474l1.242.869-1.4.982A2.494 2.494 0 1 0 5 12.5a2.508 2.508 0 0 0-.05-.492zM2.5 7.75A1.25 1.25 0 1 1 3.75 6.5 1.25 1.25 0 0 1 2.5 7.75zm0 6a1.25 1.25 0 1 1 1.25-1.25 1.25 1.25 0 0 1-1.25 1.25zm5.4-2.429l3.017 2.3a2 2 0 0 0 2.785-.492L9.64 10.1z" fill="currentColor" /></symbol><symbol id="info" viewBox="0 0 16 16"><path d="M8 1a7 7 0 1 0 7 7 7.008 7.008 0 0 0-7-7zm0 13a6 6 0 1 1 6-6 6.007 6.007 0 0 1-6 6zm0-7a1 1 0 0 0-1 1v3a1 1 0 1 0 2 0V8a1 1 0 0 0-1-1zm0-3.188A1.188 1.188 0 1 0 9.188 5 1.188 1.188 0 0 0 8 3.812z" fill="currentColor" /></symbol><symbol id="sync" viewBox="0 0 16 16"><path d="M14 1a1 1 0 0 0-1 1v1.146A6.948 6.948 0 0 0 1.227 6.307a1 1 0 1 0 1.94.484A4.983 4.983 0 0 1 8 3a4.919 4.919 0 0 1 3.967 2H10a1 1 0 0 0 0 2h4a1 1 0 0 0 1-1V2a1 1 0 0 0-1-1zm.046 7.481a1 1 0 0 0-1.213.728A4.983 4.983 0 0 1 8 13a4.919 4.919 0 0 1-3.967-2H6a1 1 0 0 0 0-2H2a1 1 0 0 0-1 1v4a1 1 0 0 0 2 0v-1.146a6.948 6.948 0 0 0 11.773-3.161 1 1 0 0 0-.727-1.212z" fill="currentColor" /></symbol><symbol id="mouse-pointer-disabled" viewBox="0 0 16 16"><path d="M11.52 7.48L10.1 8.9l2.208-.331a.2.2 0 0 0 .1-.349zM9.239 9.761l-1.688 1.688 1.2 2.519A1.125 1.125 0 1 0 10.782 13zm5.468-8.468a1 1 0 0 0-1.414 0L9.106 5.48 4.325 1.519A.2.2 0 0 0 4 1.672v8.914l-2.707 2.707a1 1 0 1 0 1.414 1.414l12-12a1 1 0 0 0 0-1.414z" fill="currentColor" /></symbol><symbol id="preferences" viewBox="0 0 16 16"><path d="M15 7h-2.1a4.967 4.967 0 0 0-.732-1.753l1.49-1.49a1 1 0 0 0-1.414-1.414l-1.49 1.49A4.968 4.968 0 0 0 9 3.1V1a1 1 0 0 0-2 0v2.1a4.968 4.968 0 0 0-1.753.732l-1.49-1.49a1 1 0 0 0-1.414 1.415l1.49 1.49A4.967 4.967 0 0 0 3.1 7H1a1 1 0 0 0 0 2h2.1a4.968 4.968 0 0 0 .737 1.763c-.014.013-.032.017-.045.03l-1.45 1.45a1 1 0 1 0 1.414 1.414l1.45-1.45c.013-.013.018-.031.03-.045A4.968 4.968 0 0 0 7 12.9V15a1 1 0 0 0 2 0v-2.1a4.968 4.968 0 0 0 1.753-.732l1.49 1.49a1 1 0 0 0 1.414-1.414l-1.49-1.49A4.967 4.967 0 0 0 12.9 9H15a1 1 0 0 0 0-2zM5 8a3 3 0 1 1 3 3 3 3 0 0 1-3-3z" fill="currentColor" /></symbol><symbol id="organize" viewBox="0 0 32 32"><path d="M20.38 19.43V7.14a2 2 0 0 0-2-2v12.24a2 2 0 0 1-2 2H8.09a2 2 0 0 0 2 2h8.19a2 2 0 0 0 2.1-1.95zm4.09 4.09V11.24a2 2 0 0 0-2-2v12.23a2 2 0 0 1-2 2h-8.28a2 2 0 0 0 2 2h8.19a2 2 0 0 0 2.09-1.95zm2-10.24v12.29a2 2 0 0 1-2 2h-8.19a2 2 0 0 0 2 2h8.19a2 2 0 0 0 2-2V15.33a2 2 0 0 0-1.95-2.05zm-10.24 2V3a2 2 0 0 0-2-2H6a2 2 0 0 0-2 2v12.33a2 2 0 0 0 2 2h8.19a2 2 0 0 0 2.09-2z" fill-rule="evenodd" /></symbol><symbol fill="currentColor #0b0b0b" id="command-noautohide" viewBox="0 0 16 16"><path d="M1 5a2 2 0 0 1 2-2h1l2-2 2 2h5a2 2 0 0 1 2 2v8a2 2 0 0 1-2 2H3a2 2 0 0 1-2-2z" fill="none" stroke="currentColor" stroke-linecap="round" stroke-linejoin="round" stroke-width="2" /></symbol><symbol id="narrate-faster" viewBox="0 0 24 24"><path d="M14.38 18.5c.015.324.23.604.54.7l2.51.68c.55.182.957.65 1.06 1.22l.05.39-3.89-.53a4.346 4.346 0 0 1-1.74-.72l-5.75-4.39a5.79 5.79 0 0 1-5.34-4.88H1a1 1 0 0 1-1-1l2.9-3.24a6.163 6.163 0 0 1 4.7-2.39c.257 0 .515.016.77.05.294.024.585.074.87.15 3.75 1 6.5 5.84 6.5 5.84.28.398.68.696 1.14.85h.17a1.27 1.27 0 0 0 1.22-.4l.78-1-2.47-1.2c-3.38-1.46-2.46-5.71-2.46-5.71 0-.26.23-.32.42-.14l5.32 5-4.31-4.81c.017-.527.33-1 .81-1.22l4.17 6.65.33.31 2.19 1.54c.54.427.874 1.063.92 1.75v2.77l-.16.13a1.661 1.661 0 0 1-1.63.19l-.75-.36a2.568 2.568 0 0 0-2.55.32l-2.18 1.82a4.23 4.23 0 0 1-.89.55 10.18 10.18 0 0 0-4.62-8.46c-.27-.16-.66.31-.47.48a10.52 10.52 0 0 1 3.68 8.5v.48l-.02.08zm8.38-5.42a.488.488 0 1 0 .346-.836.49.49 0 1 0-.346.836zm-18 9.14v-.52a1.389 1.389 0 0 1 .93-1.25c.536-.187 2.7-.66 3.43-1.84l2.06 1.63a25.57 25.57 0 0 1-6.43 2l.01-.02z" /></symbol><symbol id="developer-webide" viewBox="0 0 18 18"><path d="M14.311 5.123a6.579 6.579 0 1 0-9.285 9.117l-.481 1.369A7.985 7.985 0 1 1 16.885 7.7zM9.034 16.148L5 18l1.863-4.024zM13.4 4.89c.009.028.014.058.023.085.059.064.1.14.16.207l-.89.911c-.038-.222-.061-.458-.107-.672a15.86 15.86 0 0 0-1.706-.277c.034.621.058 1.252.076 1.9.265.008.518.022.778.032L10 8.855c0-.283-.011-.556-.014-.839C9.652 8.013 9.337 8 9 8s-.652.013-.983.017C8.013 8.348 8 8.663 8 9s.013.652.017.983c.291.004.573.017.865.017l-1.8 1.848c-.012-.3-.028-.586-.036-.888a68.65 68.65 0 0 1-1.93-.081 15.963 15.963 0 0 0 .273 1.721c.26.059.547.089.819.135l-.958.982a6.057 6.057 0 0 1-.642-.6c-.009-.027-.014-.057-.023-.085a6 6 0 0 1-.655-.832c.148.051.312.091.466.139a13.619 13.619 0 0 1-.275-1.521c-.282-.02-.581-.031-.857-.054A5.981 5.981 0 0 1 3.06 9.8c.313.021.651.031.971.049C4.015 9.571 4 9.289 4 9s.015-.571.032-.852c-.321.018-.66.028-.972.052a5.981 5.981 0 0 1 .2-.957c.276-.023.575-.034.857-.054a13.633 13.633 0 0 1 .268-1.5c-.158.048-.325.088-.476.14a6 6 0 0 1 .671-.864c.013-.027.02-.058.027-.085a6.031 6.031 0 0 1 1.195-1c-.061.178-.11.375-.165.562a13.17 13.17 0 0 1 1.544-.3c.019-.315.033-.642.058-.942A5.92 5.92 0 0 1 8.2 3c-.023.343-.034.713-.053 1.066C8.431 4.046 8.7 4 9 4s.568.046.856.063C9.837 3.711 9.826 3.34 9.8 3a5.923 5.923 0 0 1 .957.206c.025.3.037.624.058.931a13.172 13.172 0 0 1 1.518.3c-.056-.191-.1-.391-.167-.573A6.032 6.032 0 0 1 13.4 4.89zM5 9c0 .308.02.6.035.9.648.029 1.31.049 1.985.064C7.016 9.641 7 9.33 7 9s.016-.641.02-.966c-.675.015-1.337.035-1.985.066C5.02 8.4 5 8.692 5 9zm.383-3.573a15.968 15.968 0 0 0-.272 1.695 68.81 68.81 0 0 1 1.93-.081c.018-.645.042-1.276.076-1.9a15.853 15.853 0 0 0-1.734.286zm4.523-.36c-.3-.016-.597-.036-.906-.036s-.606.02-.906.036a92.36 92.36 0 0 0-.06 1.954C8.358 7.016 8.67 7 9 7s.641.016.967.021a91.24 91.24 0 0 0-.061-1.954zm4.033 1.872L16.06 9.06l-6.176 6.149-2.121-2.122zm.561 5.694l2.385-2.313a7.993 7.993 0 0 1-6.806 6.6l2.421-2.351a6.608 6.608 0 0 0 2-1.936z" /></symbol><symbol id="policies-active" viewBox="0 0 16 16"><path d="M11 10a1 1 0 0 1-1-1V5H3v8a1 1 0 0 0 1 1h2a1 1 0 0 1 0 2H3a2 2 0 0 1-2-2V4a2 2 0 0 1 2-2h1.05a2.5 2.5 0 0 1 4.9 0H10a2 2 0 0 1 2 2v5a1 1 0 0 1-1 1zm-1-6V3H8.949a1 1 0 0 1-.98-.8 1.5 1.5 0 0 0-2.939 0 1 1 0 0 1-.98.8H3v1zM6.5 2a.5.5 0 1 1 0 1 .5.5 0 0 1 0-1zm-2 5a.5.5 0 0 1 0-1h4a.5.5 0 0 1 0 1zm0 2a.5.5 0 0 1 0-1h2a.5.5 0 0 1 0 1zm0 2a.5.5 0 1 1 0-1h3a.5.5 0 1 1 0 1zm5.163 4.997a.668.668 0 0 1-.473-.196l-2.003-2.003a.668.668 0 0 1 .945-.944l1.44 1.44 4.217-6.024a.668.668 0 0 1 1.094.765l-4.674 6.677a.668.668 0 0 1-.488.285.576.576 0 0 1-.058 0z" fill="currentColor" fill-opacity="" /></symbol><symbol id="location-mac" viewBox="0 0 16 16"><path d="M0 8l14-6-6 14V8z" fill="currentColor" /></symbol><symbol fill="#0b0b0b" id="developer-pseudo-class" viewBox="0 0 16 16"><path d="M11 7V5.5c0-.3-.2-.5-.5-.5h-5c-.3 0-.5.2-.5.5v5c0 .3.2.5.5.5h1.9V7.5c0-.3.2-.5.5-.5H11zM3 7H.8c-.1 0-.6 0-.7-.7-.1-.2-.1-.4-.1-.6v-5C0 .5 0 .3.2.1.4 0 .6 0 .7 0h5.2c.3 0 .6 0 .8.2.2.1.3.3.3.5V3H3v4zM1 6h1V2.7c0-.2.1-.4.2-.5.3-.2.6-.2.8-.2h3V1H1v5z" /><path d="M9 9h1v1H9V9zm5 1h-1V9h1v1zm-2 0h-1V9h1v1zm3-1h1v1h-1V9zm1 5h-1v-1h1v1zm0-2h-1v-1h1v1zm-1 3h1v1h-1v-1zm-1 1h-1v-1h1v1zm-2 0h-1v-1h1v1zm-3-1h1v1H9v-1zm1-1H9v-1h1v1zm0-2H9v-1h1v1z" /></symbol><symbol fill="#0b0b0b" id="developer-item-toggle" viewBox="0 0 16 16"><circle cx="8" cy="8.5" r="1.5" /><path d="M15.498 8.28l-.001-.03v-.006l-.002-.018-.004-.031c0-.002 0-.002 0 0l-.004-.035.006.082c-.037-.296-.133-.501-.28-.661-.4-.522-.915-1.042-1.562-1.604-1.36-1.182-2.74-1.975-4.178-2.309a6.544 6.544 0 0 0-2.755-.042c-.78.153-1.565.462-2.369.91C3.252 5.147 2.207 6 1.252 7.035a8.4 8.4 0 0 0-.499.577c-.338.437-.338 1 0 1.437.428.552.941 1.072 1.59 1.635 1.359 1.181 2.739 1.975 4.177 2.308.907.21 1.829.223 2.756.043.78-.153 1.564-.462 2.369-.91 1.097-.612 2.141-1.464 3.097-2.499.217-.235.36-.398.498-.578a1.06 1.06 0 0 0 .248-.554c0 .01 0 .01-.008.04l.013-.079-.001.011.003-.031.001-.017v.005l.001-.02v.008l.002-.03.001-.05-.001-.044v-.008zm-.954.045v.007l.001.004V8.33v.012l-.001.01v-.01l.002-.015-.001.008c-.002.014-.002.014 0 0l-.007.084c.003-.057-.004-.041-.014-.031-.143.182-.27.327-.468.543-.89.963-1.856 1.752-2.86 2.311-.724.404-1.419.677-2.095.81a5.63 5.63 0 0 1-2.374-.036c-1.273-.295-2.523-1.014-3.774-2.101-.604-.525-1.075-1.001-1.457-1.496-.054-.07-.054-.107 0-.177.117-.152.244-.298.442-.512.89-.963 1.856-1.752 2.86-2.311.724-.404 1.419-.678 2.095-.81a5.631 5.631 0 0 1 2.374.036c1.272.295 2.523 1.014 3.774 2.101.603.524 1.074 1 1.457 1.496.035.041.043.057.046.076 0 .01 0 .01.008.043l-.009-.047.003.02-.002-.013v-.008.016c0-.004 0-.004 0 0v-.004z" /></symbol><symbol id="highlights" viewBox="0 0 16 16"><path d="M9.5 3s.428 2.43 1.249 3.251S14 7.5 14 7.5s-2.43.394-3.251 1.215S9.5 12 9.5 12s-.394-2.464-1.215-3.285S5 7.5 5 7.5s2.464-.428 3.285-1.249S9.5 3 9.5 3m0-2h-.014a2 2 0 0 0-1.96 1.68 7.536 7.536 0 0 1-.659 2.154 7.9 7.9 0 0 1-2.212.7 2 2 0 0 0 .029 3.945 7.733 7.733 0 0 1 2.183.658 7.74 7.74 0 0 1 .658 2.185A2 2 0 0 0 9.489 14H9.5a2 2 0 0 0 1.971-1.657 7.891 7.891 0 0 1 .7-2.209 7.566 7.566 0 0 1 2.154-.659 2 2 0 0 0 .027-3.944 7.694 7.694 0 0 1-2.181-.7 7.731 7.731 0 0 1-.7-2.181A2 2 0 0 0 9.5 1zM3 15.5a.5.5 0 0 1-.49-.421 3.047 3.047 0 0 0-.4-1.186 3.047 3.047 0 0 0-1.186-.4.5.5 0 0 1-.007-.986 3.147 3.147 0 0 0 1.192-.417 3.051 3.051 0 0 0 .4-1.171A.5.5 0 0 1 3 10.5a.5.5 0 0 1 .492.413 3.094 3.094 0 0 0 .417 1.179 3.142 3.142 0 0 0 1.178.416.5.5 0 0 1-.007.985 3.007 3.007 0 0 0-1.172.4 3.166 3.166 0 0 0-.416 1.192A.5.5 0 0 1 3 15.5zm-.5-11a.5.5 0 0 1-.49-.42 2.344 2.344 0 0 0-.265-.82 2.344 2.344 0 0 0-.82-.265.5.5 0 0 1-.007-.986 2.41 2.41 0 0 0 .827-.277A2.306 2.306 0 0 0 2.007.92.5.5 0 0 1 2.5.5a.5.5 0 0 1 .492.412 2.353 2.353 0 0 0 .278.818 2.372 2.372 0 0 0 .816.276.5.5 0 0 1-.007.985 2.306 2.306 0 0 0-.811.266 2.41 2.41 0 0 0-.277.827.5.5 0 0 1-.491.416z" fill="currentColor" /></symbol><symbol id="bookmark-outline" viewBox="0 0 16 16"><path d="M3.8 15.922a1.1 1.1 0 0 1-1.09-1.253l.609-4.36L.392 7.163a1.1 1.1 0 0 1 .616-1.833l4.081-.73L7.015.734a1.1 1.1 0 0 1 1.969 0L10.911 4.6l4.084.729a1.1 1.1 0 0 1 .611 1.833L12.68 10.31l.609 4.359a1.1 1.1 0 0 1-1.6 1.127L8 13.873 4.307 15.8a1.093 1.093 0 0 1-.507.122zm-.415-1.9zm9.228 0zM2.981 7.01l2.451 2.635-.5 3.572L8 11.618l3.067 1.6-.5-3.572 2.451-2.636-3.45-.616L8 3.244l-1.569 3.15zm11.659.29zm-13.278 0zm12.78-1.5zm-12.286 0z" fill="currentColor" /></symbol><symbol id="fullscreen-disabled" viewBox="0 0 16 16"><path d="M13 7a1 1 0 0 0 2 0V4l-2 2zm-6 6H6l-2 2h3a1 1 0 0 0 0-2zm7.707-11.707A1.016 1.016 0 0 0 14 1H9a1 1 0 0 0 0 2h2.586L3 11.586V9a1 1 0 0 0-2 0v5a1.015 1.015 0 0 0 .293.707 1 1 0 0 0 1.414 0l12-12a1 1 0 0 0 0-1.414z" fill="currentColor" /></symbol><symbol id="identity-icon-notice-hover" viewBox="0 0 16 16"><path d="M13.5 5A2.5 2.5 0 1 1 16 2.5 2.5 2.5 0 0 1 13.5 5zm0 1.039a3.5 3.5 0 0 0 1.125-.2 7.124 7.124 0 1 1-4.464-4.464 3.5 3.5 0 0 0-.2 1.125A3.54 3.54 0 0 0 13.5 6.039zM8 4a1 1 0 1 0 1 1 1 1 0 0 0-1-1zm1 4a1 1 0 0 0-2 0v3a1 1 0 0 0 2 0V8z" fill="currentColor" fill-rule="evenodd" /></symbol><symbol id="store-data" viewBox="0 0 16 16"><g fill="currentColor"><path d="M14 1H2a1 1 0 0 0-1 1v7a1 1 0 0 0 1 1h2a1 1 0 0 0 0-2H3V3h10v5h-1a1 1 0 0 0 0 2h2a1 1 0 0 0 1-1V2a1 1 0 0 0-1-1z" /><path d="M10.293 11.293L9 12.586V8a1 1 0 0 0-2 0v4.586l-1.293-1.293a1 1 0 0 0-1.414 1.414l3 3a1 1 0 0 0 1.414 0l3-3a1 1 0 0 0-1.414-1.414z" /></g></symbol><symbol id="screen-share" viewBox="0 0 16 16"><g fill="currentColor"><path d="M15 6H7a1 1 0 0 0-1 1v7a1 1 0 0 0 1 1h8a1 1 0 0 0 1-1V7a1 1 0 0 0-1-1zm-1 7H8V8h6z" /><path d="M4 8H2V3h6v1a1 1 0 0 0 2 0V2a1 1 0 0 0-1-1H1a1 1 0 0 0-1 1v7a1 1 0 0 0 1 1h3a1 1 0 0 0 0-2z" /></g></symbol><symbol id="paste" viewBox="0 0 16 16"><path d="M11 2H9.95a2.5 2.5 0 0 0-4.9 0H4a2 2 0 0 0-2 2v10a2 2 0 0 0 2 2h7a2 2 0 0 0 2-2V4a2 2 0 0 0-2-2zm0 7a1 1 0 0 1-1 1H5a1 1 0 0 1-1-1V5h7zm0-5H4V3h1.05a1 1 0 0 0 .98-.8 1.5 1.5 0 0 1 2.939 0 1 1 0 0 0 .98.8H11zM7.5 2a.5.5 0 1 0 .5.5.5.5 0 0 0-.5-.5zm-2 5h4a.5.5 0 0 0 0-1h-4a.5.5 0 0 0 0 1zm0 2h2a.5.5 0 0 0 0-1h-2a.5.5 0 0 0 0 1z" fill="currentColor" /></symbol><symbol id="bookmark-remove" viewBox="0 0 16 16"><path d="M15.845 6.063A1.1 1.1 0 0 0 15 5.331l-1.125-.2-1.729 1.723.872.156-2.45 2.635.5 3.572L8 11.618l-1.291.673-3.468 3.468a1.057 1.057 0 0 0 1.066.038L8 13.874l3.688 1.921a1.1 1.1 0 0 0 1.6-1.126l-.609-4.358 2.926-3.147a1.1 1.1 0 0 0 .24-1.101zm-1.138-4.77a1 1 0 0 0-1.414 0L10.6 3.983 8.984.733A1.093 1.093 0 0 0 8 .124a1.1 1.1 0 0 0-.985.609L5.089 4.6l-4.082.729a1.1 1.1 0 0 0-.614 1.833L3.32 10.31l-.155 1.111-1.872 1.872a1 1 0 1 0 1.414 1.414l12-12a1 1 0 0 0 0-1.414zM2.981 7.01l3.449-.617L8 3.243l1.111 2.232L5.2 9.391z" fill="currentColor" /></symbol><symbol id="mail" viewBox="0 0 16 16"><path d="M13 2H3C1.3 2 0 3.3 0 5v6c0 1.7 1.3 3 3 3h10c1.7 0 3-1.3 3-3V5c0-1.7-1.3-3-3-3zm0 2c.1 0 .2 0 .3.1h-.1L8 7.9 2.8 4.1h-.1c.1-.1.2-.1.3-.1h10zm1 7c0 .6-.4 1-1 1H3c-.6 0-1-.4-1-1V4.8c0 .1.1.1.2.1l5.5 4c.1.1.2.1.3.1.1 0 .2 0 .3-.1l5.5-4c.1 0 .1-.1.1-.2.1.1.1.2.1.3v6z" /></symbol><symbol fill="#0b0b0b" id="developer-fast-forward" viewBox="0 0 16 16"><path d="M4 12.5l8-5-8-5v10zm-1 0v-10a1 1 0 0 1 1.53-.848l8 5a1 1 0 0 1 0 1.696l-8 5A1 1 0 0 1 3 12.5zm12-.003l-.04-7.342-.01-1.658A.488.488 0 0 0 14.474 3a.488.488 0 0 0-.473.503l.05 9a.488.488 0 0 0 .477.497.488.488 0 0 0 .473-.503z" /></symbol><symbol id="inbox" viewBox="0 0 16 16"><path d="M13 1H3a3.007 3.007 0 0 0-3 3v8a3.009 3.009 0 0 0 3 3h10a3.005 3.005 0 0 0 3-3V4a3.012 3.012 0 0 0-3-3zM3 3h10a1 1 0 0 1 1 1v3h-3.5a.5.5 0 0 0-.5.5c0 .751-.146 2.5-1.5 2.5h-1C6.146 10 6 8.251 6 7.5a.5.5 0 0 0-.5-.5H2V4a1 1 0 0 1 1-1zm10 10H3a1 1 0 0 1-1-1V8h3.017c.134 1.889 1.041 3 2.483 3h1c1.442 0 2.349-1.111 2.483-3H14v4a1 1 0 0 1-1 1z" fill="currentColor" /></symbol><symbol id="rewind" viewBox="0 0 16 16"><path d="M3 3.995C3 3.445 3.444 3 4 3c.552 0 1 .456 1 .995v8.01c0 .55-.444.995-1 .995-.552 0-1-.456-1-.995v-8.01zm10.498 0c0-.55-.386-.753-.857-.46l-6.284 3.93c-.473.295-.47.776 0 1.07l6.287 3.93c.474.296.858.08.858-.46v-8.01z" /></symbol><symbol fill="currentColor" fill-opacity="" id="autoplay-media" viewBox="0 0 32 32"><path d="M21.954 1.185a1.5 1.5 0 0 0-1.117 2.784A12.961 12.961 0 1 1 5 9.207V10.5a1.5 1.5 0 0 0 3 0v-6A1.5 1.5 0 0 0 6.5 3h-5a1.5 1.5 0 0 0 0 3h2.1a15.934 15.934 0 1 0 18.354-4.815z" /><path d="M13 24.245l11.325-6.538a1.99 1.99 0 0 0 0-3.446L13 7.723a1.989 1.989 0 0 0-2.984 1.723v13.076A1.989 1.989 0 0 0 13 24.245z" /></symbol><symbol id="themes" viewBox="0 0 16 16"><path d="M4 10a1.994 1.994 0 0 0-1.911 1.44c0 .01-.014.015-.017.025-.362 1.135-.705 2.11-1.759 2.573l-.023.012-.024.012A.5.5 0 0 0 0 14.5a.5.5 0 0 0 .5.5 6.974 6.974 0 0 0 4.825-1.5c.006-.006.007-.013.013-.019A1.993 1.993 0 0 0 4 10zM15.693.307a.984.984 0 0 0-1.338-.046l-8.031 7a.982.982 0 0 0-.049 1.433l1.032 1.031a.983.983 0 0 0 .693.287h.033a.982.982 0 0 0 .706-.335l7-8.031a.982.982 0 0 0-.046-1.339z" fill="currentColor" /></symbol><symbol id="search-windows" viewBox="0 0 16 16"><path d="M10 0a5.991 5.991 0 0 0-4.885 9.471L.293 14.293a1 1 0 1 0 1.414 1.414l4.822-4.822A6 6 0 1 0 10 0zm0 10a4 4 0 1 1 4-4 4 4 0 0 1-4 4z" fill="currentColor" /></symbol><symbol id="restoresession" viewBox="0 0 16 16"><path d="M13 0H3a3 3 0 0 0-3 3v8a3 3 0 0 0 3 3h4l-.3.4a1 1 0 1 0 1.6 1.2l1.5-2a1 1 0 0 0 0-1.2l-1.5-2a1 1 0 0 0-1.6 1.2l.3.4H3a1 1 0 0 1-1-1V5h12v6a1 1 0 0 1-1 1 1 1 0 0 0 0 2 3 3 0 0 0 3-3V3a3 3 0 0 0-3-3zM2 4V3a1 1 0 0 1 1-1h10a1 1 0 0 1 1 1v1z" /></symbol><symbol id="reminders" viewBox="0 0 16 16"><path d="M6 16a1 1 0 0 1-.707-.293 6.906 6.906 0 0 1-2.237-4.079 3.848 3.848 0 0 0-1.263-2.421 5.523 5.523 0 0 1 0-7.414 5.523 5.523 0 0 1 7.414 0 3.851 3.851 0 0 0 2.422 1.263 6.905 6.905 0 0 1 4.078 2.237 1 1 0 0 1 0 1.414l-9 9A1 1 0 0 1 6 16zM5.5 2.375a3.285 3.285 0 0 0-2.293.832A3.287 3.287 0 0 0 2.375 5.5a3.287 3.287 0 0 0 .832 2.293 5.794 5.794 0 0 1 1.812 3.448 4.54 4.54 0 0 0 1.017 2.31l7.516-7.516a4.548 4.548 0 0 0-2.31-1.017 5.79 5.79 0 0 1-3.449-1.811A3.285 3.285 0 0 0 5.5 2.375zm5.232 11.893a2.5 2.5 0 1 0 3.536-3.536z" fill="currentColor" /></symbol><symbol id="reader-mode" viewBox="0 0 16 16"><path d="M12 0H4a3 3 0 0 0-3 3v10a3 3 0 0 0 3 3h8a3 3 0 0 0 3-3V3a3 3 0 0 0-3-3zm1 13a1 1 0 0 1-1 1H4a1 1 0 0 1-1-1V3a1 1 0 0 1 1-1h8a1 1 0 0 1 1 1z" fill="currentColor" /><path d="M10.5 5h-5a.5.5 0 0 1 0-1h5a.5.5 0 0 1 0 1zm0 2h-5a.5.5 0 0 1 0-1h5a.5.5 0 0 1 0 1zm0 2h-5a.5.5 0 0 1 0-1h5a.5.5 0 0 1 0 1zm-3 2h-2a.5.5 0 0 1 0-1h2a.5.5 0 0 1 0 1z" fill="currentColor" /></symbol><symbol id="identity-icon-notice" viewBox="0 0 16 16"><path d="M13.5 5A2.5 2.5 0 1 1 16 2.5 2.5 2.5 0 0 1 13.5 5zM8 6a1 1 0 1 1 1-1 1 1 0 0 1-1 1zm1 5a1 1 0 0 1-2 0V8a1 1 0 0 1 2 0v3zM8 2a6.08 6.08 0 1 0 5.629 3.987 3.452 3.452 0 0 0 .984-.185A6.9 6.9 0 0 1 15 8a7 7 0 1 1-7-7 6.9 6.9 0 0 1 2.2.387 3.452 3.452 0 0 0-.185.984A5.951 5.951 0 0 0 8 2z" fill="currentColor" fill-rule="evenodd" /></symbol><symbol fill="#0b0b0b" fill-rule="evenodd" id="developer-tool-webconsole" viewBox="0 0 16 16"><path d="M14 4V3H2v1h12zm0 1v8H2V5h12zM1 3.002C1 2.45 1.45 2 2.007 2h11.986A1.01 1.01 0 0 1 15 3.002v9.996C15 13.55 14.55 14 13.993 14H2.007A1.01 1.01 0 0 1 1 12.998V3.002z" /><path d="M4.09 7.859l2.062 2-.006-.713-2.061 2.062a.5.5 0 0 0 .707.707l2.062-2.061a.5.5 0 0 0-.006-.713l-2.061-2a.5.5 0 1 0-.697.718z" /></symbol><symbol id="cancel" viewBox="0 0 16 16"><path d="M6.586 8l-2.293 2.293a1 1 0 0 0 1.414 1.414L8 9.414l2.293 2.293a1 1 0 0 0 1.414-1.414L9.414 8l2.293-2.293a1 1 0 1 0-1.414-1.414L8 6.586 5.707 4.293a1 1 0 0 0-1.414 1.414L6.586 8zM8 0a8 8 0 1 1 0 16A8 8 0 0 1 8 0z" fill="currentColor" /></symbol><symbol id="caption" viewBox="0 0 32 32"><path d="M28.48 4.49H3.68A2.54 2.54 0 0 0 1.2 7v18.2a2.54 2.54 0 0 0 2.47 2.47h24.8a2.49 2.49 0 0 0 2.42-2.48V7a2.49 2.49 0 0 0-2.41-2.51zm-.88 18.2a1.56 1.56 0 0 1-1.6 1.65H6.15a1.56 1.56 0 0 1-1.65-1.65V9.49a1.56 1.56 0 0 1 1.65-1.65H26a1.56 1.56 0 0 1 1.6 1.65zM11.8 19c-1.34 0-1.58-1.3-1.58-2.69 0-1.91.56-2.88 1.48-2.88s1.35.59 1.43 1.62h2.45c-.21-2.54-1.53-4-4-4-2.24 0-4 2-4 5.18s1.61 5.21 4.26 5.21c2.12 0 3.55-1.53 3.79-4.09h-2.48c-.1.97-.5 1.65-1.35 1.65zm8.8 0c-1.33 0-1.6-1.25-1.6-2.64 0-1.91.56-2.88 1.48-2.88s1.25.59 1.32 1.62h2.5c-.21-2.54-1.48-4-3.94-4-2.24 0-4 2-4 5.18s1.56 5.21 4.21 5.21c2.12 0 3.5-1.53 3.74-4.09h-2.46c-.1.92-.4 1.6-1.25 1.6z" /></symbol><symbol id="private-browsing" viewBox="0 0 16 16"><path d="M12.408 11.992c-1.663 0-2.813-2-4.408-2s-2.844 2-4.408 2C1.54 11.992.025 10.048 0 6.719c-.015-2.068.6-2.727 3.265-2.727S6.709 5.082 8 5.082s2.071-1.091 4.735-1.091 3.28.66 3.265 2.727c-.025 3.33-1.54 5.274-3.592 5.274zM4.572 6.537c-1.619.07-2.286 1.035-2.286 1.273s1.073.909 2.122.909 2.286-.384 2.286-.727a1.9 1.9 0 0 0-2.122-1.455zm6.857 0a1.9 1.9 0 0 0-2.123 1.455c0 .343 1.236.727 2.286.727s2.122-.671 2.122-.909-.667-1.203-2.286-1.273z" fill="currentColor" /></symbol><symbol id="back" viewBox="0 0 16 16"><path d="M15 7H3.414l4.293-4.293a1 1 0 0 0-1.414-1.414l-6 6a1 1 0 0 0 0 1.414l6 6a1 1 0 0 0 1.414-1.414L3.414 9H15a1 1 0 0 0 0-2z" fill="currentColor" /></symbol><symbol id="formfill" viewBox="0 0 16 16"><g fill="currentColor"><path d="M7.281 5H8.75A.25.25 0 0 0 9 4.75V.984a.984.984 0 0 0-1.969 0V4.75a.25.25 0 0 0 .25.25z" /><path d="M13.5 2H11a1 1 0 0 0 0 2h2.5a.5.5 0 0 1 .5.5v7a.5.5 0 0 1-.5.5h-11a.5.5 0 0 1-.5-.5v-7a.5.5 0 0 1 .5-.5H5a1 1 0 0 0 0-2H2.5A2.5 2.5 0 0 0 0 4.5v7A2.5 2.5 0 0 0 2.5 14h11a2.5 2.5 0 0 0 2.5-2.5v-7A2.5 2.5 0 0 0 13.5 2z" /><rect height="4" rx=".577" ry=".577" width="4" x="3" y="6" /><path d="M9.5 7h3a.5.5 0 0 0 0-1h-3a.5.5 0 0 0 0 1zm0 1a.5.5 0 0 0 0 1h2a.5.5 0 0 0 0-1z" /></g></symbol><symbol id="sidebar" viewBox="0 0 16 16"><path d="M13 1H3a3.007 3.007 0 0 0-3 3v8a3.009 3.009 0 0 0 3 3h10a3.005 3.005 0 0 0 3-3V4a3.012 3.012 0 0 0-3-3zM2 12V4a1 1 0 0 1 1-1h5v10H3a1 1 0 0 1-1-1zm12 0a1 1 0 0 1-1 1H9V3h4a1 1 0 0 1 1 1z" fill="currentColor" /><path d="M12.5 5h-2a.5.5 0 0 1 0-1h2a.5.5 0 0 1 0 1zm0 2h-2a.5.5 0 0 1 0-1h2a.5.5 0 0 1 0 1zm-1 2h-1a.5.5 0 0 1 0-1h1a.5.5 0 0 1 0 1z" fill="currentColor" /></symbol><symbol id="arrowhead-down" viewBox="0 0 16 16"><path d="M8 12a1 1 0 0 1-.707-.293l-5-5a1 1 0 0 1 1.414-1.414L8 9.586l4.293-4.293a1 1 0 0 1 1.414 1.414l-5 5A1 1 0 0 1 8 12z" fill="currentColor" /></symbol><symbol fill="currentColor" fill-opacity="" id="searchfield-cancel" viewBox="0 0 16 16"><path d="M6.586 8l-2.293 2.293a1 1 0 0 0 1.414 1.414L8 9.414l2.293 2.293a1 1 0 0 0 1.414-1.414L9.414 8l2.293-2.293a1 1 0 1 0-1.414-1.414L8 6.586 5.707 4.293a1 1 0 0 0-1.414 1.414L6.586 8zM8 0a8 8 0 1 1 0 16A8 8 0 0 1 8 0z" /></symbol><symbol id="print" viewBox="0 0 16 16"><path d="M14 5h-1V1a1 1 0 0 0-1-1H4a1 1 0 0 0-1 1v4H2a2 2 0 0 0-2 2v5h3v3a1 1 0 0 0 1 1h8a1 1 0 0 0 1-1v-3h3V7a2 2 0 0 0-2-2zM2.5 8a.5.5 0 1 1 .5-.5.5.5 0 0 1-.5.5zm9.5 7H4v-5h8zm0-10H4V1h8zm-6.5 7h4a.5.5 0 0 0 0-1h-4a.5.5 0 1 0 0 1zm0 2h5a.5.5 0 0 0 0-1h-5a.5.5 0 1 0 0 1z" fill="currentColor" /></symbol><symbol fill="currentColor #0b0b0b" id="dock-side-right" viewBox="0 0 16 16"><path d="M0 4a3 3 0 0 1 3-3h10a3 3 0 0 1 3 3v8a3 3 0 0 1-3 3H3a3 3 0 0 1-3-3zm2 0v8a1 1 0 0 0 1 1h7V3H3a1 1 0 0 0-1 1zm9-1v10h2a1 1 0 0 0 1-1V4a1 1 0 0 0-1-1z" /></symbol><symbol id="pin-outline" viewBox="0 0 16 16"><path d="M14.707 13.293L11.414 10l2.293-2.293a1 1 0 0 0 0-1.414A4.384 4.384 0 0 0 10.586 5h-.172A2.415 2.415 0 0 1 8 2.586V2a1 1 0 0 0-1.707-.707l-5 5A1 1 0 0 0 2 8h.586A2.415 2.415 0 0 1 5 10.414v.169a4.036 4.036 0 0 0 1.337 3.166 1 1 0 0 0 1.37-.042L10 11.414l3.293 3.293a1 1 0 0 0 1.414-1.414zm-7.578-1.837A2.684 2.684 0 0 1 7 10.583v-.169a4.386 4.386 0 0 0-1.292-3.121 4.414 4.414 0 0 0-1.572-1.015l2.143-2.142a4.4 4.4 0 0 0 1.013 1.571A4.384 4.384 0 0 0 10.414 7h.172a2.4 2.4 0 0 1 .848.152z" fill="currentColor" /></symbol><symbol fill="#0b0b0b" id="developer-tool-debugger" viewBox="0 0 16 16"><path d="M2 5v6c0 .109.039.342.144.553.15.297.374.447.856.447h9l-.78.375 4-5v1.25l-4-5L12 4H3c-.482 0-.707.15-.856.447A1.403 1.403 0 0 0 2 5zM1 5s0-2 2-2h9l4 5-4 5H3c-2 0-2-2-2-2V5z" /></symbol><symbol id="device-desktop" viewBox="0 0 16 16"><path d="M15.5 12H15V3a1 1 0 0 0-1-1H2a1 1 0 0 0-1 1v9H.5a.5.5 0 0 0-.5.5v1a.5.5 0 0 0 .5.5h15a.5.5 0 0 0 .5-.5v-1a.5.5 0 0 0-.5-.5zM10 13H6v-1h4zm3-2H3V4h10z" fill="currentColor" /></symbol><symbol id="secure-mixed" viewBox="0 0 16 16"><path d="M8 1a4 4 0 0 0-4 4v1.984h-.5a1.5 1.5 0 0 0-1.5 1.5V13.5A1.5 1.5 0 0 0 3.5 15h2.535a2.274 2.274 0 0 1 .207-1.318L9.43 7.27a2.266 2.266 0 0 1 .2-.286H6V5a2 2 0 0 1 4 0v1.568A2.255 2.255 0 0 1 11.478 6a2.283 2.283 0 0 1 .522.073V5a4 4 0 0 0-4-4z" fill="currentColor" fill-opacity="" /><path d="M15.818 14.127l-3.189-6.411a1.285 1.285 0 0 0-2.3 0l-3.192 6.411A1.294 1.294 0 0 0 8.289 16h6.377a1.294 1.294 0 0 0 1.152-1.873z" fill="#ffbf00" /><path d="M11.478 8a.272.272 0 0 1 .256.161l3.188 6.412a.291.291 0 0 1-.013.291.275.275 0 0 1-.243.137H8.289a.275.275 0 0 1-.243-.137.29.29 0 0 1-.013-.291l3.188-6.412A.272.272 0 0 1 11.478 8m0-1a1.272 1.272 0 0 0-1.152.716l-3.189 6.411A1.294 1.294 0 0 0 8.289 16h6.377a1.294 1.294 0 0 0 1.152-1.873l-3.189-6.411A1.272 1.272 0 0 0 11.478 7z" fill="#d76e00" opacity=".35" /><path d="M11.5 12a.5.5 0 0 0 .5-.5v-2a.5.5 0 0 0-1 0v2a.5.5 0 0 0 .5.5zm0 .809a.691.691 0 1 0 .691.691.691.691 0 0 0-.691-.691z" fill="#fff" /></symbol><symbol id="window" viewBox="0 0 16 16"><path d="M13 1H3a3 3 0 0 0-3 3v8a3 3 0 0 0 3 3h11a2 2 0 0 0 2-2V4a3 3 0 0 0-3-3zm1 11a1 1 0 0 1-1 1H3a1 1 0 0 1-1-1V6h12zm0-7H2V4a1 1 0 0 1 1-1h10a1 1 0 0 1 1 1z" fill="currentColor" /></symbol><symbol id="pocket-list" viewBox="0 0 16 16"><path d="M4 7a4 4 0 0 1-4-4V1a1 1 0 0 1 1-1h6a1 1 0 0 1 1 1v2a4 4 0 0 1-4 4zm1.993-5.016a.5.5 0 0 0-.362.159L3.989 3.785 2.378 2.168A.492.492 0 0 0 2 1.984a.5.5 0 0 0-.357.85l-.008.006 1.647 1.653.353.354a.5.5 0 0 0 .707 0l.358-.354L6.35 2.84a.5.5 0 0 0-.357-.856z" fill="currentColor" /><path d="M13 1h-3a1 1 0 0 0 0 2h3a1 1 0 0 1 1 1v8a1 1 0 0 1-1 1H3a1 1 0 0 1-1-1V8a1 1 0 0 0-2 0v4a3 3 0 0 0 3 3h10a3 3 0 0 0 3-3V4a3 3 0 0 0-3-3z" fill="currentColor" /></symbol><symbol id="tracking-protection" viewBox="0 0 32 32"><path d="M27 7.154a2.688 2.688 0 0 0-2.226-2.662L16 2.985 7.227 4.491A2.69 2.69 0 0 0 5 7.153c-.006 2.031.007 5.681.155 7.319.425 4.65 1.282 7.191 3.4 10.07a11.4 11.4 0 0 0 7.33 4.452l.112.012.112-.012a11.4 11.4 0 0 0 7.33-4.452c2.12-2.879 2.977-5.42 3.4-10.07.153-1.638.166-5.288.161-7.318zm-2.147 7.137c-.391 4.287-1.125 6.49-3.021 9.065A9.562 9.562 0 0 1 16 26.989a9.568 9.568 0 0 1-5.831-3.633c-1.9-2.575-2.63-4.778-3.021-9.065C7 12.676 7 8.765 7 7.159a.7.7 0 0 1 .563-.7L16 5.015l8.436 1.448a.694.694 0 0 1 .563.7c.001 1.602.001 5.512-.147 7.128z" fill="currentColor" /><path d="M10.148 13.584c.465 5.1 1.336 6.611 2.716 8.486A6.459 6.459 0 0 0 16 24.337V7.75l-6 1.03c.021 2.264.073 3.979.148 4.804z" fill="currentColor" /></symbol><symbol fill="#0b0b0b" id="developer-tool-styleeditor" viewBox="0 0 16 16"><path d="M5.5 2C3.565 2 2.806 3.12 3.065 4.587c.239 1.346.117 1.76-.435 2.39l-.054.06c-.252.288-.39.474-.523.74L1.94 8l.112.224c.132.265.27.45.523.739l.054.06c.552.63.674 1.044.435 2.39C2.802 12.904 3.527 14 5.5 14a.5.5 0 1 0 0-1c-1.291 0-1.614-.487-1.45-1.413.292-1.65.081-2.37-.669-3.223l-.053-.06c-.2-.229-.296-.357-.38-.528v.448c.084-.17.18-.299.38-.528l.053-.06c.75-.854.961-1.573.67-3.223C3.89 3.515 4.24 3 5.5 3a.5.5 0 1 0 0-1zm5 1c1.26 0 1.609.515 1.45 1.413-.292 1.65-.081 2.37.669 3.223l.053.06c.2.229.296.357.38.528v-.448c-.084.17-.18.299-.38.528l-.053.06c-.75.854-.961 1.573-.67 3.223.165.926-.158 1.413-1.449 1.413a.5.5 0 1 0 0 1c1.973 0 2.698-1.096 2.435-2.587-.239-1.346-.117-1.76.435-2.39l.054-.06c.252-.288.39-.474.523-.74L14.06 8l-.112-.224c-.132-.265-.27-.45-.523-.739l-.054-.06c-.552-.63-.674-1.044-.435-2.39C13.194 3.12 12.435 2 10.5 2a.5.5 0 0 0 0 1z" /></symbol><symbol id="secure" viewBox="0 0 24 24"><path d="M18.75 9.977H18V7A6 6 0 0 0 6 7v2.977h-.75A2.25 2.25 0 0 0 3 12.227v7.523A2.25 2.25 0 0 0 5.25 22h13.5A2.25 2.25 0 0 0 21 19.75v-7.523a2.25 2.25 0 0 0-2.25-2.25zM9 7a3 3 0 0 1 6 0v2.977H9z" /></symbol><symbol id="search" viewBox="0 0 16 16"><path d="M15.707 14.293l-4.822-4.822a6.019 6.019 0 1 0-1.414 1.414l4.822 4.822a1 1 0 0 0 1.414-1.414zM6 10a4 4 0 1 1 4-4 4 4 0 0 1-4 4z" fill="currentColor" /></symbol><symbol id="help" viewBox="0 0 16 16"><path d="M8 1a7 7 0 1 0 7 7 7.008 7.008 0 0 0-7-7zm0 13a6 6 0 1 1 6-6 6.007 6.007 0 0 1-6 6zM8 3.125A2.7 2.7 0 0 0 5.125 6a.875.875 0 0 0 1.75 0c0-1 .6-1.125 1.125-1.125a1.105 1.105 0 0 1 1.13.744.894.894 0 0 1-.53 1.016A2.738 2.738 0 0 0 7.125 9v.337a.875.875 0 0 0 1.75 0v-.37a1.041 1.041 0 0 1 .609-.824A2.637 2.637 0 0 0 10.82 5.16 2.838 2.838 0 0 0 8 3.125zm0 7.625A1.25 1.25 0 1 0 9.25 12 1.25 1.25 0 0 0 8 10.75z" fill="currentColor" /></symbol><symbol fill="#0b0b0b" id="developer-command-frames" viewBox="0 0 16 16"><path d="M14.2 2H1.8c-.4 0-.8.4-.8.9v11.2c0 .4.3.9.8.9h12.4c.4 0 .8-.4.8-.9V2.9s-.6-.9-.8-.9zM8 14H2v-4h6v4zm6 0H9v-4h5v4zm0-5H2V3h12v6z" /></symbol><symbol id="arrowhead-left" viewBox="0 0 16 16"><path d="M6.414 8l4.293-4.293a1 1 0 0 0-1.414-1.414l-5 5a1 1 0 0 0 0 1.414l5 5a1 1 0 0 0 1.414-1.414z" fill="currentColor" /></symbol><symbol fill="#0b0b0b" id="developer-pause" viewBox="0 0 16 16"><path d="M5 12.503l.052-9a.5.5 0 0 0-1-.006l-.052 9a.5.5 0 0 0 1 .006zm7-.006l-.05-9A.488.488 0 0 0 11.474 3a.488.488 0 0 0-.473.503l.05 9a.488.488 0 0 0 .477.497.488.488 0 0 0 .473-.503z" /></symbol><symbol id="report" viewBox="0 0 16 16"><path d="M8 0C4.3 0 2 2.107 2 5.5c0 2.372 2.065 4.268 3 5V14c0 1.476 1.616 2 3 2s3-.524 3-2v-3.5c.935-.736 3-2.632 3-5C14 2.107 11.7 0 8 0zm1 12H7v-1h2zm-1 2a3.086 3.086 0 0 1-1-.172V13h2v.828A3.047 3.047 0 0 1 8 14zm1.445-4.832A1 1 0 0 0 9 10H7a1 1 0 0 0-.444-.831C5.845 8.691 4 7.1 4 5.5 4 2.607 6.175 2 8 2s4 .607 4 3.5c0 1.6-1.845 3.191-2.555 3.668z" fill="currentColor" /></symbol><symbol id="information" viewBox="0 0 16 16"><path d="M8 16a8 8 0 1 1 8-8 8.009 8.009 0 0 1-8 8zM8 2a6 6 0 1 0 6 6 6.006 6.006 0 0 0-6-6z" fill="currentColor" /><path d="M8 7a1 1 0 0 0-1 1v3a1 1 0 0 0 2 0V8a1 1 0 0 0-1-1z" fill="currentColor" /><circle cx="8" cy="5" r="1.188" /></symbol><symbol fill="#0b0b0b" id="developer-debugger-step-over" viewBox="0 0 16 16"><path d="M13.297 6.912C12.595 4.39 10.167 2.5 7.398 2.5A5.898 5.898 0 0 0 1.5 8.398a.5.5 0 0 0 1 0A4.898 4.898 0 0 1 7.398 3.5c2.75 0 5.102 2.236 5.102 4.898v.004L8.669 7.029a.5.5 0 0 0-.338.942l4.462 1.598a.5.5 0 0 0 .651-.34.506.506 0 0 0 .02-.043l2-5a.5.5 0 1 0-.928-.372l-1.24 3.098z" /><circle cx="7" cy="12" r="1" /></symbol><symbol id="arrowhead-up" viewBox="0 0 16 16"><path d="M13 11a1 1 0 0 1-.707-.293L8 6.414l-4.293 4.293a1 1 0 0 1-1.414-1.414l5-5a1 1 0 0 1 1.414 0l5 5A1 1 0 0 1 13 11z" fill="currentColor" /></symbol><symbol id="character-encoding" viewBox="0 0 18 18"><path d="M14 16H4c-1.1 0-2-.9-2-2V4c0-1.1.9-2 2-2h10c1.1 0 2 .9 2 2v10c0 1.1-.9 2-2 2zm0-10c0-1.7-1.3-3-3-3H7C5.3 3 4 4.3 4 6v4c0 1.7 1.3 3 3 3h4c1.7 0 3-.3 3-2V6zm-3 3.2c.3 0 .6 0 .9-.1.3-.1.5-.2.8-.3v.8c-.3.1-.6.2-.8.3-.2.1-.5.1-.9.1-1 0-1.7-.4-2.1-1.2-.3.4-.6.7-.9.9-.4.2-.8.3-1.2.3-.6 0-1-.2-1.3-.5-.4-.2-.5-.7-.5-1.2 0-.6.2-1 .6-1.3.4-.3 1.1-.5 1.9-.5h.9v-.4c0-.5-.1-.8-.3-1-.1-.3-.4-.4-.8-.4-.5 0-1 .1-1.6.4l-.2-.6c.2-.1.5-.3.9-.4.3 0 .6-.1 1-.1s.8.1 1.1.2c.2.2.5.4.6.8.2-.3.4-.6.7-.7.3-.2.6-.3 1-.3.7 0 1.2.2 1.6.7.4.5.6 1.1.6 1.9v.6H9.4c0 1.4.6 2 1.6 2zM8.5 7.1h-.8c-.7 0-1.1.1-1.4.3-.3.2-.4.5-.4.9 0 .3.1.6.3.7.2.2.4.2.7.2.5 0 .9-.1 1.2-.4.3-.3.4-.7.4-1.3v-.4zm3.6-.6c0-.6-.1-1-.3-1.3-.2-.3-.5-.4-.9-.4s-.7.1-1 .4c-.3.3-.4.7-.5 1.3h2.7z" /></symbol><symbol fill="#0b0b0b" id="developer-debugger-step-in" viewBox="0 0 16 16"><path d="M1.5 14.042h4.095a.5.5 0 0 0 0-1H1.5a.5.5 0 1 0 0 1zM7.5 3v6.983L4.364 6.657a.5.5 0 0 0-.728.686l4 4.243a.51.51 0 0 0 .021.02.5.5 0 0 0 .71-.024l3.997-4.239a.5.5 0 1 0-.728-.686L8.5 9.983V2.5a.5.5 0 0 0-.536-.5H1.536C1.24 2 1 2.224 1 2.5s.24.5.536.5H7.5zm3 11.042h4.095a.5.5 0 0 0 0-1H10.5a.5.5 0 1 0 0 1z" /></symbol><symbol id="policies-error" viewBox="0 0 16 16"><path d="M11 7.003a1 1 0 0 1-1-1v-1H3v8a1 1 0 0 0 1 1h1a1 1 0 1 1 0 2H3a2 2 0 0 1-2-2v-10a2 2 0 0 1 2-2h1.05a2.5 2.5 0 0 1 4.9 0H10a2 2 0 0 1 2 2v2a1 1 0 0 1-1 1zm-1-3v-1H8.949a1 1 0 0 1-.98-.8 1.5 1.5 0 0 0-2.939 0 1 1 0 0 1-.98.8H3v1zm-3.5-2a.5.5 0 1 1 0 1 .5.5 0 0 1 0-1zm-2 5a.5.5 0 1 1 0-1h4a.5.5 0 0 1 0 1zm0 2a.5.5 0 1 1 0-1h3a.5.5 0 0 1 0 1zm0 2a.5.5 0 1 1 0-1h2a.5.5 0 1 1 0 1zm10.41 3.338a1.15 1.15 0 0 1-1.09 1.66h-5.7a1.15 1.15 0 0 1-1-1.66l2.85-5.7a1.15 1.15 0 0 1 2.06 0zm-4.45-3.78v1.73a.58.58 0 0 0 1.15 0v-1.73a.58.58 0 1 0-1.15 0zm.57 4.13a.68.68 0 1 0 0-1.36.68.68 0 0 0 0 1.36z" fill="currentColor" fill-opacity="" /></symbol><symbol id="overflow" viewBox="0 0 16 16"><path d="M8.707 7.293l-5-5a1 1 0 0 0-1.414 1.414L6.586 8l-4.293 4.293a1 1 0 1 0 1.414 1.414l5-5a1 1 0 0 0 0-1.414zm6 0l-5-5a1 1 0 0 0-1.414 1.414L12.586 8l-4.293 4.293a1 1 0 1 0 1.414 1.414l5-5a1 1 0 0 0 0-1.414z" fill="currentColor" /></symbol><symbol id="location-win" viewBox="0 0 16 16"><path d="M14 7h-.091A6 6 0 0 0 9 2.09V2a1 1 0 0 0-2 0v.09A6 6 0 0 0 2.091 7H2a1 1 0 0 0 0 2h.091A6 6 0 0 0 7 13.91V14a1 1 0 0 0 2 0v-.09A6 6 0 0 0 13.909 9H14a1 1 0 0 0 0-2zm-6 5a4 4 0 1 1 4-4 4 4 0 0 1-4 4zm0-6a2 2 0 1 0 2 2 2 2 0 0 0-2-2z" fill="currentColor" /></symbol><symbol id="share-windows" viewBox="0 0 16 16"><path d="M15.707 4.293l-4-4a1 1 0 0 0-1.414 1.414L12.585 4H11a7.008 7.008 0 0 0-7 7 1 1 0 0 0 2 0 5.006 5.006 0 0 1 5-5h1.585l-2.293 2.293a1 1 0 1 0 1.414 1.414l4-4a1 1 0 0 0 .001-1.414z" fill="currentColor" /><path d="M13 11a1 1 0 0 0-1 1v1a1 1 0 0 1-1 1H3a1 1 0 0 1-1-1V6a1 1 0 0 1 1-1h1a1 1 0 0 0 0-2H3a3 3 0 0 0-3 3v7a3 3 0 0 0 3 3h8a3 3 0 0 0 3-3v-1a1 1 0 0 0-1-1z" fill="currentColor" /></symbol><symbol id="policies-documentation" viewBox="0 0 16 16"><path d="M11 7.003a1 1 0 0 1-1-1v-1H3v8a1 1 0 0 0 1 1h2a1 1 0 1 1 0 2H3a2 2 0 0 1-2-2v-10a2 2 0 0 1 2-2h1.05a2.5 2.5 0 0 1 4.9 0H10a2 2 0 0 1 2 2v2a1 1 0 0 1-1 1zm-1-3v-1H8.949a1 1 0 0 1-.98-.8 1.5 1.5 0 0 0-2.939 0 1 1 0 0 1-.98.8H3v1zm-3.5-2a.5.5 0 1 1 0 1 .5.5 0 0 1 0-1zm-2 5a.5.5 0 1 1 0-1h4a.5.5 0 0 1 0 1zm0 2a.5.5 0 1 1 0-1h2a.5.5 0 0 1 0 1zm0 2a.5.5 0 1 1 0-1h1a.5.5 0 1 1 0 1zM11 16a4 4 0 1 1 0-8 4 4 0 0 1 0 8zm.46-2a.46.46 0 1 0-.92 0 .46.46 0 0 0 .92 0zm-1.06-3c0-.306.246-.6.6-.6s.6.294.6.6c0 .124-.058.254-.163.39a1.94 1.94 0 0 1-.228.24l-.092.087a1.859 1.859 0 0 0-.298.32c-.131.19-.219.435-.219.763a.4.4 0 1 0 .8 0c0-.172.042-.258.078-.309a.611.611 0 0 1 .078-.09l.052-.048h.001l.004-.004c.02-.018.045-.041.07-.066l.034-.032a3.22 3.22 0 0 0 .35-.37c.16-.205.333-.505.333-.881 0-.694-.554-1.4-1.4-1.4s-1.4.706-1.4 1.4a.4.4 0 1 0 .8 0z" fill="currentColor" fill-opacity="" /></symbol><symbol id="device-tablet" viewBox="0 0 16 16"><path d="M14 1H2a2 2 0 0 0-2 2v10a2 2 0 0 0 2 2h12a2 2 0 0 0 2-2V3a2 2 0 0 0-2-2zm-1 11.5a.5.5 0 0 1-.5.5h-10a.5.5 0 0 1-.5-.5v-9a.5.5 0 0 1 .5-.5h10a.5.5 0 0 1 .5.5v9zM15 9h-1V7h1v2z" fill="currentColor" fill-opacity="" /></symbol><symbol id="screen-share-disabled" viewBox="0 0 16 16"><g fill="currentColor"><path d="M4 10a1 1 0 0 0 0-2H2V3h6v1a1 1 0 0 0 2 0V2a1 1 0 0 0-1-1H1a1 1 0 0 0-1 1v7a1 1 0 0 0 1 1zm11-4h-2l-2 2h3v5H8v-2l-2 2v1a1 1 0 0 0 1 1h8a1 1 0 0 0 1-1V7a1 1 0 0 0-1-1z" /><path d="M14.707 1.293a1 1 0 0 0-1.414 0L8.586 6H7a1 1 0 0 0-1 1v1.586l-4.707 4.707a1 1 0 1 0 1.414 1.414l12-12a1 1 0 0 0 0-1.414z" /></g></symbol><symbol fill="transparent" id="developer-command-responsivemode" stroke="#0b0b0b" stroke-linecap="round" stroke-linejoin="round" stroke-miterlimit="10" viewBox="0 0 16 16"><circle cx="-5.5" cy="8.5" r="1" /><path d="M3.8 1.5h7.5v13H3.8zm7.4 7H3.8" /><circle cx="7.5" cy="11.5" r="1" /></symbol><symbol id="secure-broken" viewBox="0 0 16 16"><path d="M12.5 6.984h-.484L4 15h8.5a1.5 1.5 0 0 0 1.5-1.5V8.484a1.5 1.5 0 0 0-1.5-1.5zm-6.5 0V5a2 2 0 0 1 4 0v1l1.892-1.892A4 4 0 0 0 4 5v1.984h-.5a1.5 1.5 0 0 0-1.5 1.5V13.5a1.483 1.483 0 0 0 .07.43l6.946-6.946z" fill="currentColor" fill-opacity="" /><path d="M2 15a1 1 0 0 1-.707-1.707l12-12a1 1 0 0 1 1.414 1.414l-12 12A1 1 0 0 1 2 15z" fill="#ff0039" /></symbol><symbol id="developer-debugging-devices" viewBox="0 0 16 16"><path d="M10.7 14.4H5.3c-1.2 0-1.5-.4-1.5-1.2V2.8c0-.9.3-1.2 1.5-1.2h5.3c1.1 0 1.5.3 1.5 1.2v10.3c.1 1-.3 1.3-1.4 1.3zM5 12.6h6V3.5H5v9.1z" /></symbol><symbol id="permissions" viewBox="0 0 24 24"><path d="M2 1h20c1.1 0 2 .9 2 2v18c0 1.1-.9 2-2 2H2c-1.1 0-2-.9-2-2V3c0-1.1.9-2 2-2z" /><path d="M12 3h9c.6 0 1 .4 1 1v16c0 .6-.4 1-1 1h-9V3zm-6.5 9.5l2.7-3.7c.2-.3.6-.3.8-.1l.7.5c.2.2.2.5 0 .7L5.8 15c-.2.2-.5.3-.8.1l-2.2-2.2c-.2-.2-.2-.5 0-.7l.8-.8c.2-.2.5-.2.7 0l1.2 1.1z" fill="#FFF" /><path d="M15 9l-1 1 2 2-2 2 1 1 2-2 2 2 1-1-2-2 2-2-1-1-2 2.01L15 9z" /></symbol><symbol id="edit" viewBox="0 0 16 16"><path d="M14.354 2.353l-.708-.707a2.007 2.007 0 0 0-2.828 0l-.379.379a.5.5 0 0 0 0 .707l2.829 2.829a.5.5 0 0 0 .707 0l.379-.379a2.008 2.008 0 0 0 0-2.829zM9.732 3.439a.5.5 0 0 0-.707 0L3.246 9.218a1.986 1.986 0 0 0-.452.712l-1.756 4.39A.5.5 0 0 0 1.5 15a.5.5 0 0 0 .188-.037l4.382-1.752a1.966 1.966 0 0 0 .716-.454l5.779-5.778a.5.5 0 0 0 0-.707zM5.161 12.5l-2.549 1.02a.1.1 0 0 1-.13-.13L3.5 10.831a.1.1 0 0 1 .16-.031l1.54 1.535a.1.1 0 0 1-.039.165z" fill="currentColor" /></symbol><symbol id="bookmarksmenu" viewBox="0 0 16 16"><path d="M14 16H2a1 1 0 0 1-1-1v-2a1 1 0 0 1 2 0v1h10v-1a1 1 0 0 1 2 0v2a1 1 0 0 1-1 1zm-.039-11.718a.9.9 0 0 0-.723-.609l-3.063-.445L8.805.456a.934.934 0 0 0-1.605 0L5.83 3.228l-3.063.445A.893.893 0 0 0 2.27 5.2l2.217 2.156-.523 3.044a.894.894 0 0 0 1.3.942L8 9.907l2.74 1.439a.888.888 0 0 0 .416.1.9.9 0 0 0 .526-.172.893.893 0 0 0 .355-.874l-.522-3.047 2.22-2.153a.893.893 0 0 0 .226-.918zm-4.367 2.45l.376 2.189L8 7.888 6.035 8.921l.376-2.189-1.592-1.55 2.2-.319L8 2.872l.983 1.991 2.2.319z" fill="currentColor" /></symbol><symbol id="plugin-disabled" viewBox="0 0 16 16"><g fill="currentColor"><path d="M3 3h3a1 1 0 0 0 0-2H3a1 1 0 0 0 0 2zm11.707 1.293L5 14h9a1 1 0 0 0 1-1V5a1 1 0 0 0-.293-.707z" /><path d="M14.707 1.293a.986.986 0 0 0-1.207-.139A.973.973 0 0 0 13 1h-3a1 1 0 0 0 0 2h1.586l-1 1H2a1 1 0 0 0-1 1v8a.971.971 0 0 0 .154.5.986.986 0 0 0 .139 1.205 1 1 0 0 0 1.414 0l12-12a1 1 0 0 0 0-1.412z" /></g></symbol><symbol fill="currentColor" fill-opacity="" id="fingerprinters-disabled" viewBox="0 0 16 16"><path d="M14.71 1.29a1 1 0 0 0-1.42 0l-.56.57A7 7 0 0 0 1 7a1 1 0 0 0 2 0 5 5 0 0 1 5-5 5 5 0 0 1 3.31 1.28l-.7.7A4 4 0 0 0 8 3a4 4 0 0 0-4 4 2 2 0 0 1-2 2 1 1 0 0 0 0 2 3.86 3.86 0 0 0 2.33-.75l-3 3a.91.91 0 0 0-.08.13.82.82 0 0 0-.11.17 1.17 1.17 0 0 0-.06.2A.86.86 0 0 0 1 14a.61.61 0 0 0 0 .23.62.62 0 0 0 0 .13v.08a.76.76 0 0 0 .12.19s0 .06.06.09a1 1 0 0 0 1.42 0l12-12a1 1 0 0 0 .11-1.43zM6 7a2 2 0 0 1 2-2 1.94 1.94 0 0 1 1.18.41l-.72.72A.91.91 0 0 0 8 6a1 1 0 0 0-1 1 4.76 4.76 0 0 1-.06.65L5.12 9.47A4.1 4.1 0 0 0 6 7zm3.68 2.32a8.06 8.06 0 0 1-1.42 2.48 11 11 0 0 0-1.15 1.75 1 1 0 0 0 .44 1.34A.93.93 0 0 0 8 15a1 1 0 0 0 .89-.55 9.74 9.74 0 0 1 1-1.44A8.84 8.84 0 0 0 12 7zm3.23-3.23A5.5 5.5 0 0 1 13 7a8.24 8.24 0 0 1-1.14 4.28A5.75 5.75 0 0 0 11 14a1 1 0 0 0 2 0 3.91 3.91 0 0 1 .63-1.79A10.18 10.18 0 0 0 15 7a6.81 6.81 0 0 0-.48-2.52z" /></symbol><symbol id="delete" viewBox="0 0 16 16"><path d="M6.5 12a.5.5 0 0 0 .5-.5v-6a.5.5 0 0 0-1 0v6a.5.5 0 0 0 .5.5zm2 0a.5.5 0 0 0 .5-.5v-6a.5.5 0 0 0-1 0v6a.5.5 0 0 0 .5.5zm2 0a.5.5 0 0 0 .5-.5v-6a.5.5 0 0 0-1 0v6a.5.5 0 0 0 .5.5z" fill="currentColor" /><path d="M14 2h-3.05a2.5 2.5 0 0 0-4.9 0H3a1 1 0 0 0 0 2v9a3 3 0 0 0 3 3h5a3 3 0 0 0 3-3V4a1 1 0 0 0 0-2zM8.5 1a1.489 1.489 0 0 1 1.391 1H7.109A1.489 1.489 0 0 1 8.5 1zM12 13a1 1 0 0 1-1 1H6a1 1 0 0 1-1-1V4h7z" fill="currentColor" /></symbol><symbol id="top-sites-outline" viewBox="0 0 16 16"><path d="M5.3 7H1.7A1.7 1.7 0 0 1 0 5.3V2.7A1.7 1.7 0 0 1 1.7 1h3.6A1.7 1.7 0 0 1 7 2.7v2.6A1.7 1.7 0 0 1 5.3 7zM2 5h3V3H2zm12.3 2h-3.6A1.7 1.7 0 0 1 9 5.3V2.7A1.7 1.7 0 0 1 10.7 1h3.6A1.7 1.7 0 0 1 16 2.7v2.6A1.7 1.7 0 0 1 14.3 7zM11 5h3V3h-3zM5.3 15H1.7A1.7 1.7 0 0 1 0 13.3v-2.6A1.7 1.7 0 0 1 1.7 9h3.6A1.7 1.7 0 0 1 7 10.7v2.6A1.7 1.7 0 0 1 5.3 15zM2 13h3v-2H2zm12.3 2h-3.6A1.7 1.7 0 0 1 9 13.3v-2.6A1.7 1.7 0 0 1 10.7 9h3.6a1.7 1.7 0 0 1 1.7 1.7v2.6a1.7 1.7 0 0 1-1.7 1.7zM11 13h3v-2h-3z" fill="currentColor" /></symbol><symbol id="tab-new" viewBox="0 0 16 16"><path d="M11 11V9a1 1 0 0 1 1-1h1a1 1 0 0 1 1 1V5a2 2 0 0 0-2-2H4a2 2 0 0 0-2 2v6H1a1 1 0 0 0 0 2h7v-1a1 1 0 0 1 1-1zm4.5 1H13V9.5a.5.5 0 0 0-1 0V12H9.5a.5.5 0 0 0 0 1H12v2.5a.5.5 0 0 0 1 0V13h2.5a.5.5 0 0 0 0-1z" fill="currentColor" /></symbol><symbol id="type-controls" viewBox="0 0 24 24"><path d="M10.87 18.989h2.144L8.3 3.991H5.724l-4.739 15h2.059l1.115-4.171h5.6zM4.652 12.91l2.316-7.22 2.294 7.22h-4.61zM22.1 16.515v-5.06c0-2.31-.984-3.713-3.65-3.713a10.236 10.236 0 0 0-3.7.756l.366 1.402a9.9 9.9 0 0 1 2.984-.583c1.533 0 1.958.627 1.958 2.223v.975h-1.35c-3.086 0-4.871 1.125-4.871 3.5a3.217 3.217 0 0 0 3.527 3.338 3.205 3.205 0 0 0 2.945-1.659 2.573 2.573 0 0 0 2.436 1.659l.441-1.344a1.408 1.408 0 0 1-1.086-1.494zM17.8 17.9a1.744 1.744 0 0 1-1.911-1.995c0-1.512 1.029-2.111 3.065-2.111h1.1v2.386c-.628 1.154-1.116 1.72-2.254 1.72z" fill="#737373" /></symbol><symbol fill="currentColor" fill-opacity="" id="trackers-disabled" viewBox="0 0 16 16"><path d="M9.306 9.694c.071.416.132.8.15 1.1a4.938 4.938 0 0 1-.058 1 18.45 18.45 0 0 0 3.478.193l.052-.537c.2-2.032.885-2.574 1.028-3.707a5.874 5.874 0 0 0-.223-2.475zm-.07 3.073c-.069.365-.136.737-.177 1.13a1.675 1.675 0 0 0 1.579 2.079c1.235.16 1.779-.976 1.944-1.635a8.594 8.594 0 0 0 .2-1.35c-.2.005-.4.009-.606.009a18.258 18.258 0 0 1-2.94-.233zm5.471-11.474a1 1 0 0 0-1.414 0L6.547 8.039c0-.083-.008-.167 0-.249a25.267 25.267 0 0 0 .432-3.949C6.724 1.833 5.853-.177 4.414 0 2.8.2 1.766 2.521 2.045 4.742c.143 1.133.828 1.675 1.028 3.707l.052.536a20.41 20.41 0 0 0 2.545-.069L4.614 9.972c-.256.012-.514.028-.76.028-.221 0-.432 0-.636-.01a9.6 9.6 0 0 0 .169 1.21l-2.094 2.093a1 1 0 1 0 1.414 1.414l12-12a1 1 0 0 0 0-1.414z" /></symbol><symbol fill="currentColor #0b0b0b" id="command-console" viewBox="0 0 16 16"><path d="M13 1a3 3 0 0 1 3 3v8a3 3 0 0 1-3 3H3a3 3 0 0 1-3-3V4a3 3 0 0 1 3-3h10zm0 2H3a1 1 0 0 0-1 1v1h12V4a1 1 0 0 0-1-1zm1 3H2v6a1 1 0 0 0 1 1h10a1 1 0 0 0 1-1z" /><path d="M4.5 7.5l2 2-2 2" fill="none" stroke="currentColor" stroke-linecap="round" stroke-linejoin="round" /></symbol><symbol id="check" viewBox="0 0 16 16"><path d="M6 14a1 1 0 0 1-.707-.293l-3-3a1 1 0 0 1 1.414-1.414l2.157 2.157 6.316-9.023a1 1 0 0 1 1.639 1.146l-7 10a1 1 0 0 1-.732.427A.863.863 0 0 1 6 14z" fill="currentColor" /></symbol><symbol id="import-export" viewBox="0 0 32 32"><path d="M30.22 12.4A1.88 1.88 0 0 0 29 11.18L21.91 9l-4.14-6.39a1.88 1.88 0 0 0-3.17 0L10.47 9 3.4 11.18a1.88 1.88 0 0 0-1 2.92L7 20.25l-.25 7.8a1.88 1.88 0 0 0 2.55 1.82l6.9-1.8 6.89 1.8a1.88 1.88 0 0 0 2.55-1.82l-.24-7.8 4.56-6.15a1.88 1.88 0 0 0 .26-1.7zM16.66 27.17a6.63 6.63 0 0 1-4.46-1.66l-2.6 2.6v-7.53h7.53l-2.33 2.33a3.36 3.36 0 0 0 2.81 1.43 3.09 3.09 0 0 0 3.29-2.82 2.44 2.44 0 0 0-.22-.94h1.84a4.4 4.4 0 0 1 .26 1.42c0 2.85-2.78 5.17-6.12 5.17zm6.12-8.47h-7.53l2.33-2.33a3.36 3.36 0 0 0-2.81-1.43 3.09 3.09 0 0 0-3.3 2.82 2.44 2.44 0 0 0 .22.94H9.86a4.41 4.41 0 0 1-.26-1.41c0-2.86 2.74-5.18 6.12-5.18a6.63 6.63 0 0 1 4.46 1.66l2.6-2.6z" fill-rule="evenodd" /></symbol><symbol id="globe" viewBox="0 0 16 16"><path d="M8 0a8 8 0 1 0 8 8 8.009 8.009 0 0 0-8-8zm5.163 4.958h-1.552a7.7 7.7 0 0 0-1.051-2.376 6.03 6.03 0 0 1 2.603 2.376zM14 8a5.963 5.963 0 0 1-.335 1.958h-1.821A12.327 12.327 0 0 0 12 8a12.327 12.327 0 0 0-.156-1.958h1.821A5.963 5.963 0 0 1 14 8zm-6 6c-1.075 0-2.037-1.2-2.567-2.958h5.135C10.037 12.8 9.075 14 8 14zM5.174 9.958a11.084 11.084 0 0 1 0-3.916h5.651A11.114 11.114 0 0 1 11 8a11.114 11.114 0 0 1-.174 1.958zM2 8a5.963 5.963 0 0 1 .335-1.958h1.821a12.361 12.361 0 0 0 0 3.916H2.335A5.963 5.963 0 0 1 2 8zm6-6c1.075 0 2.037 1.2 2.567 2.958H5.433C5.963 3.2 6.925 2 8 2zm-2.56.582a7.7 7.7 0 0 0-1.051 2.376H2.837A6.03 6.03 0 0 1 5.44 2.582zm-2.6 8.46h1.549a7.7 7.7 0 0 0 1.051 2.376 6.03 6.03 0 0 1-2.603-2.376zm7.723 2.376a7.7 7.7 0 0 0 1.051-2.376h1.552a6.03 6.03 0 0 1-2.606 2.376z" fill="currentColor" /></symbol><symbol id="pin" viewBox="0 0 12 12"><path d="M10.53 9.47L8.25 7.19 9.8 5.643a.694.694 0 0 0 0-.98 3.04 3.04 0 0 0-2.161-.894h-.122A1.673 1.673 0 0 1 5.846 2.1v-.408A.693.693 0 0 0 4.664 1.2L1.2 4.664a.693.693 0 0 0 .49 1.182h.41a1.672 1.672 0 0 1 1.669 1.671v.117a2.8 2.8 0 0 0 .925 2.192.693.693 0 0 0 .949-.026L7.19 8.251l2.28 2.28a.75.75 0 0 0 1.06-1.061z" fill="currentColor" /></symbol><symbol fill="#0b0b0b" fill-rule="evenodd" id="developer-tool-profiler" viewBox="0 0 16 16"><path d="M15 9.004C14.51 12.394 11.578 15 8.035 15 4.15 15 1 11.866 1 8s3.15-7 7.036-7c1.941 0 3.7.783 4.972 2.048l-.709.709A6.027 6.027 0 0 0 8.036 2c-3.33 0-6.03 2.686-6.03 6s2.7 6 6.03 6a6.023 6.023 0 0 0 5.946-4.993l1.017-.003z" /><path d="M4.137 9H3.1a5.002 5.002 0 0 0 9.8 0h-.965a4.023 4.023 0 0 1-3.9 3 4.023 4.023 0 0 1-3.898-3z" fill-opacity=".5" /><path d="M8.036 11a2.994 2.994 0 0 0 2.987-3c0-1.657-1.338-3-2.987-3a2.994 2.994 0 0 0-2.988 3c0 1.657 1.338 3 2.988 3zm0-1c1.11 0 2.011-.895 2.011-2s-.9-2-2.011-2c-1.111 0-2.012.895-2.012 2s.9 2 2.012 2z" /><path d="M10.354 6.354l4-4a.5.5 0 0 0-.708-.708l-4 4a.5.5 0 1 0 .708.708z" /></symbol><symbol id="stop" viewBox="0 0 16 16"><path d="M9.414 8l5.293-5.293a1 1 0 0 0-1.414-1.414L8 6.586 2.707 1.293a1 1 0 0 0-1.414 1.414L6.586 8l-5.293 5.293a1 1 0 1 0 1.414 1.414L8 9.414l5.293 5.293a1 1 0 0 0 1.414-1.414z" fill="currentColor" /></symbol><symbol fill="currentColor" fill-opacity="" id="cookies" viewBox="0 0 16 16"><path d="M15.379 8a.142.142 0 0 0 .02 0 7.978 7.978 0 0 1-1.858-.356.981.981 0 0 1-.054.847 1 1 0 1 1-1.735-.994.981.981 0 0 1 .481-.407A8.02 8.02 0 0 1 8 .61v.025C8-.474 4.753.174 5.179 1.2 4.753.174 2 2.016 2.788 2.8 2 2.016.167 4.77 1.193 5.193.167 4.77-.476 8.016.634 8.015c-1.11 0-.461 3.247.564 2.821-1.025.426.817 3.175 1.6 2.39-.784.785 1.969 2.621 2.393 1.6-.424 1.025 2.823 1.668 2.822.558 0 1.11 3.246.461 2.821-.564.425 1.025 3.175-.816 2.39-1.6.785.784 2.621-1.97 1.6-2.394 1.022.42 1.665-2.826.555-2.826zm-11.12.5a1 1 0 1 1-.37-1.365 1 1 0 0 1 .37 1.365zm1.955 4.361a1 1 0 1 1 .36-1.367 1 1 0 0 1-.36 1.369zM5.706 5a1 1 0 1 1 1-1 1 1 0 0 1-1 1zM8 9a1 1 0 1 1 1-1 1 1 0 0 1-1 1zm2.306 4a1 1 0 1 1 1-1 1 1 0 0 1-1 1z" /></symbol><symbol id="share-macos" viewBox="0 0 16 16"><path d="M12.707 4.294l-4-4A1 1 0 0 0 8.38.077a.984.984 0 0 0-.246-.05A.938.938 0 0 0 8 0a.938.938 0 0 0-.134.027.984.984 0 0 0-.246.05A1 1 0 0 0 7.291.3l-4 4a1 1 0 0 0 1.416 1.408L7 3.415V11a1 1 0 0 0 2 0V3.415l2.293 2.293a1 1 0 0 0 1.414-1.414z" fill="currentColor" /><path d="M14 9a1 1 0 0 0-1 1v3a1 1 0 0 1-1 1H4a1 1 0 0 1-1-1v-3a1 1 0 0 0-2 0v3a3 3 0 0 0 3 3h8a3 3 0 0 0 3-3v-3a1 1 0 0 0-1-1z" fill="currentColor" /></symbol><symbol fill="#0b0b0b" id="developer-tool-memory" viewBox="0 0 16 16"><path d="M4.727 8.055l-1.96-1a.5.5 0 0 0-.573.083L.655 8.602a.5.5 0 1 0 .69.725l1.539-1.465-.572.083 1.96 1a.5.5 0 1 0 .455-.89z" /><path d="M4.727 10.055l-1.96-1a.5.5 0 0 0-.573.083L.655 10.602a.5.5 0 1 0 .69.725l1.539-1.465-.572.083 1.96 1a.5.5 0 1 0 .455-.89zm7 .89l1.961-1-.572-.083 1.54 1.465a.5.5 0 1 0 .689-.725l-1.54-1.464a.5.5 0 0 0-.571-.083l-1.961 1a.5.5 0 1 0 .454.89z" /><path d="M11.727 8.945l1.961-1-.572-.083 1.54 1.465a.5.5 0 1 0 .689-.725l-1.54-1.464a.5.5 0 0 0-.571-.083l-1.961 1a.5.5 0 1 0 .454.89z" /><path d="M11.727 6.945l1.961-1-.572-.083 1.54 1.465a.5.5 0 1 0 .689-.725l-1.54-1.464a.5.5 0 0 0-.571-.083l-1.961 1a.5.5 0 1 0 .454.89zm-7-.89l-1.96-1a.5.5 0 0 0-.573.083L.655 6.602a.5.5 0 1 0 .69.725l1.539-1.465-.572.083 1.96 1a.5.5 0 1 0 .455-.89z" /><path d="M5 3.002v9.996c0-.001.003.002-.003.002h6.006c-.006 0-.003-.003-.003-.002V3.002c0 .001-.003-.002.003-.002H4.997c.006 0 .003.003.003.002zm-1 0C4 2.45 4.453 2 4.997 2h6.006c.55 0 .997.456.997 1.002v9.996c0 .553-.453 1.002-.997 1.002H4.997C4.447 14 4 13.544 4 12.998V3.002z" /></symbol><symbol id="legacy-extension" viewBox="0 0 16 16"><path d="M6 12a2.14 2.14 0 0 1 1.75.78l2.29-4.59A2.14 2.14 0 0 1 12 7V5a1 1 0 0 0-1-1H7.78A.77.77 0 0 1 7 3.25c0-.75 1-.78 1-1.75S7.13 0 6 0 4 .64 4 1.5s1 1 1 1.75a.77.77 0 0 1-.72.75H1a1 1 0 0 0-1 1v2.25A.77.77 0 0 0 .78 8c.75 0 .78-1 1.75-1S4 7.9 4 9s-.64 2-1.5 2-1-1-1.75-1a.77.77 0 0 0-.75.75V15a1 1 0 0 0 1 1h3.28a.77.77 0 0 0 .72-.75c0-.75-1-.78-1-1.75S4.92 12 6 12zm9.88 2.34L13 8.64a1.15 1.15 0 0 0-2.06 0l-2.85 5.7a1.15 1.15 0 0 0 1 1.66h5.7a1.15 1.15 0 0 0 1.09-1.66zm-4.45-3.78a.58.58 0 1 1 1.15 0v1.73a.58.58 0 0 1-1.15 0zm.57 4.13a.68.68 0 1 1 .68-.68.68.68 0 0 1-.68.68z" fill="currentColor" /></symbol><symbol id="experiments" viewBox="0 0 16 16"><path d="M13.9 9.81a1.23 1.23 0 0 0 0-.17v-.08a5.67 5.67 0 0 0-2.4-3.36 1.17 1.17 0 0 1-.56-.95V3a1 1 0 0 0-1-1H6.06a1 1 0 0 0-1 1v2.25a1.17 1.17 0 0 1-.56 1 5.66 5.66 0 0 0-2.35 3.33v.12a.53.53 0 0 0 0 .11 5.35 5.35 0 0 0-.11 1 5.65 5.65 0 0 0 3.24 5.09 1 1 0 0 0 .44.1h4.57a1 1 0 0 0 .44-.1A5.65 5.65 0 0 0 14 10.83a5.3 5.3 0 0 0-.1-1.02zm-8.27-2a3.18 3.18 0 0 0 1.43-2.6V4h1.88v1.25a3.18 3.18 0 0 0 1.43 2.6 3.68 3.68 0 0 1 1.54 2.24v.22a2.82 2.82 0 0 1-3.68-.59A3.48 3.48 0 0 0 4.56 9a3.76 3.76 0 0 1 1.07-1.15z" fill="currentColor" /></symbol><symbol fill="#0b0b0b" id="developer-pane-expand" viewBox="0 0 16 16"><path d="M4 13H2V3h2v10zm7-6.9v3.8L8 8l3-1.9z" fill-opacity=".3" /><path d="M2 14h12c.6 0 1-.4 1-1V3c0-.6-.4-1-1-1H2c-.6 0-1 .4-1 1v10c0 .6.4 1 1 1zM14 3v10H5V3h9zM2 3h2v10H2V3zm5.5 5.8l3 1.9c1 .6 1.5.3 1.5-.8V6.1c0-1.1-.6-1.4-1.5-.8l-3 1.9c-1 .5-1 1 0 1.6zM11 6.1v3.8L8 8l3-1.9z" /></symbol><symbol id="save" viewBox="0 0 16 16"><path d="M14 3h-2v2h2v8H2V5h7V3h-.849L6.584 1.538A2 2 0 0 0 5.219 1H2a2 2 0 0 0-2 2v10a2 2 0 0 0 2 2h12a2 2 0 0 0 2-2V5a2 2 0 0 0-2-2zM2 3h3.219l1.072 1H2z" fill="currentColor" /><path d="M8.146 6.146a.5.5 0 0 0 0 .707l2 2a.5.5 0 0 0 .707 0l2-2a.5.5 0 1 0-.707-.707L11 7.293V.5a.5.5 0 0 0-1 0v6.793L8.854 6.146a.5.5 0 0 0-.708 0z" fill="currentColor" /></symbol><symbol id="pocket-outline" viewBox="0 0 16 16"><path d="M14.5.932h-13A1.509 1.509 0 0 0 0 2.435v4.5a8 8 0 0 0 16 0v-4.5A1.508 1.508 0 0 0 14.5.932zm-.5 6a6 6 0 0 1-12 0v-4h12zm-6.7 3.477a1 1 0 0 0 1.422 0l3.343-3.39a1 1 0 1 0-1.423-1.406L8.01 8.283 5.38 5.614a1 1 0 0 0-1.425 1.405zm.711.3z" fill="currentColor" fill-opacity="" /></symbol><symbol fill="#aaa" id="developer-search" viewBox="0 0 16 16"><path d="M10.716 10.032A5.5 5.5 0 1 0 1 6.5a5.5 5.5 0 0 0 9.032 4.216l4.143 4.142c.19.19.495.19.683 0a.48.48 0 0 0 0-.683l-4.142-4.143zM6.5 11a4.5 4.5 0 1 0 0-9 4.5 4.5 0 0 0 0 9z" fill-rule="evenodd" /></symbol><symbol id="new" viewBox="0 0 16 16"><path d="M14 7H9V2a1 1 0 0 0-2 0v5H2a1 1 0 1 0 0 2h5v5a1 1 0 0 0 2 0V9h5a1 1 0 0 0 0-2z" fill="currentColor" /></symbol><symbol id="developer" viewBox="0 0 16 16"><path d="M14.555 3.2l-2.434 2.436a1.243 1.243 0 1 1-1.757-1.757L12.8 1.445A3.956 3.956 0 0 0 11 1a3.976 3.976 0 0 0-3.434 6.02l-6.273 6.273a1 1 0 1 0 1.414 1.414L8.98 8.434A3.96 3.96 0 0 0 11 9a4 4 0 0 0 4-4 3.956 3.956 0 0 0-.445-1.8z" fill="currentColor" /></symbol><symbol fill="#0b0b0b" id="developer-rewind" viewBox="0 0 16 16"><path d="M13 2.5l-8 5 8 5v-10zm1 0v10a1 1 0 0 1-1.53.848l-8-5a1 1 0 0 1 0-1.696l8-5A1 1 0 0 1 14 2.5zM2 12.497l-.04-7.342-.01-1.658A.488.488 0 0 0 1.474 3 .488.488 0 0 0 1 3.503l.05 9a.488.488 0 0 0 .477.497.488.488 0 0 0 .473-.503z" /></symbol><symbol id="pocket-remove" viewBox="0 0 16 16"><path d="M12.112 6.969L9.217 9.862l-.617.618a.852.852 0 0 1-.235.156l-3.072 3.071A7 7 0 0 0 15 7.25V4l-2.72 2.72a.854.854 0 0 1-.168.249zm2.595-5.676a1 1 0 0 0-1.414 0L12.586 2H2.75A1.749 1.749 0 0 0 1 3.75v3.5a6.953 6.953 0 0 0 1.739 4.6l-1.446 1.443a1 1 0 1 0 1.414 1.414l12-12a1 1 0 0 0 0-1.414zM3.861 6.969l.014-.01A.875.875 0 0 1 4.5 5.472a.86.86 0 0 1 .661.322l1.812 1.819-1.238 1.238z" fill="currentColor" /></symbol><symbol id="folder" viewBox="0 0 16 16"><path d="M14 3H8.151L6.584 1.538A2 2 0 0 0 5.219 1H2a2 2 0 0 0-2 2v10a2 2 0 0 0 2 2h12a2 2 0 0 0 2-2V5a2 2 0 0 0-2-2zM5.219 3l1.072 1H2V3zM14 13H2V5h6v-.014c.05 0 .1.014.151.014H14z" fill="currentColor" /></symbol><symbol fill="#0b0b0b" id="developer-tool-storage" viewBox="0 0 16 16"><path d="M7.5 7.556c3.006 0 5.5-1.136 5.5-2.778C13 3.136 10.506 2 7.5 2S2 3.136 2 4.778C2 6.42 4.494 7.556 7.5 7.556zm0-1c-2.517 0-4.5-.903-4.5-1.778S4.983 3 7.5 3s4.5.903 4.5 1.778-1.983 1.778-4.5 1.778zm0 7.889c3.006 0 5.5-1.137 5.5-2.778 0-.878-.595-1.606-1.657-2.081-.244-.11-.473-.107-.778-.033-.056.014-.565.158-.765.205-.626.148-1.342.231-2.3.231-.973 0-1.683-.082-2.273-.225a18.574 18.574 0 0 1-.673-.193c-.277-.076-.479-.089-.707-.005l-.035.014C2.638 10.064 2 10.756 2 11.667c0 1.641 2.494 2.778 5.5 2.778zm0-1c-2.517 0-4.5-.904-4.5-1.778 0-.432.354-.816 1.194-1.163h-.002c-.012.005.003.006.097.032-.056-.016.474.144.702.2.669.162 1.458.253 2.509.253 1.035 0 1.828-.092 2.53-.257.228-.054.74-.2.77-.207a.756.756 0 0 1 .134-.027c.734.329 1.066.735 1.066 1.169 0 .874-1.983 1.778-4.5 1.778z" /><path d="M7.5 10.945c3.006 0 5.5-1.137 5.5-2.778 0-.873-.62-1.601-1.693-2.082-.244-.109-.472-.106-.773-.032-.051.013-.551.158-.75.206-.615.147-1.326.23-2.284.23-.973 0-1.68-.082-2.265-.225a17.077 17.077 0 0 1-.66-.19c-.27-.076-.467-.092-.692-.015l-.054.02C2.65 6.568 2 7.259 2 8.168c0 1.641 2.494 2.778 5.5 2.778zm0-1C4.983 9.945 3 9.04 3 8.167c0-.426.364-.813 1.21-1.163l-.003.001c-.011.004.005.005.099.032-.079-.022.465.143.69.198.665.163 1.452.254 2.504.254 1.036 0 1.825-.092 2.517-.258.228-.054.733-.2.758-.207a.766.766 0 0 1 .124-.026c.748.335 1.101.75 1.101 1.169 0 .874-1.983 1.778-4.5 1.778z" /></symbol><symbol id="fullscreen" viewBox="0 0 16 16"><path d="M7.707 8.293a1 1 0 0 0-1.414 0L3 11.586V9a1 1 0 0 0-2 0v5a1 1 0 0 0 1 1h5a1 1 0 1 0 0-2H4.414l3.293-3.293a1 1 0 0 0 0-1.414zM14 1H9a1 1 0 0 0 0 2h2.586L8.293 6.293a1 1 0 1 0 1.414 1.414L13 4.414V7a1 1 0 0 0 2 0V2a1 1 0 0 0-1-1z" fill="currentColor" /></symbol><symbol id="forget" viewBox="0 0 16 16"><path d="M6.854 10.854l2-2A.5.5 0 0 0 9 8.5v-4a.5.5 0 0 0-1 0v3.793l-1.854 1.853a.5.5 0 1 0 .707.707zM8 0a8.011 8.011 0 0 0-7 4.184V1.5a.5.5 0 0 0-1 0v5a.5.5 0 0 0 .5.5h5a.5.5 0 0 0 0-1H2.344a.938.938 0 0 0 .056-.085 6 6 0 1 1 0 4.184 1 1 0 0 0-1.873.7A7.991 7.991 0 1 0 8 0z" fill="currentColor" /></symbol><symbol id="location-disabled" viewBox="0 0 16 16"><path d="M12.7 6.3a4.953 4.953 0 0 1 .2.7H12l-1 1a1 1 0 0 0 1 1h.9A5.015 5.015 0 0 1 9 12.9V12a1 1 0 0 0-1-1l-1 1v.9a4.953 4.953 0 0 1-.7-.2l-1.512 1.512a6.989 6.989 0 0 0 9.425-9.425zm2.007-5.007a1 1 0 0 0-1.414 0L12.184 2.4A6.986 6.986 0 0 0 2.4 12.184l-1.107 1.109a1 1 0 1 0 1.414 1.414l12-12a1 1 0 0 0 0-1.414zM3.1 9H4a1 1 0 0 0 0-2h-.9A5.015 5.015 0 0 1 7 3.1V4a1 1 0 0 0 2 0v-.9a4.955 4.955 0 0 1 1.747.738l-6.908 6.909A4.957 4.957 0 0 1 3.1 9z" fill="currentColor" /></symbol><symbol id="microphone" viewBox="0 0 16 16"><path d="M8 11a2 2 0 0 0 2-2V3a2 2 0 1 0-4 0v6a2 2 0 0 0 2 2z" fill="currentColor" /><path d="M12 9V7.5a.5.5 0 0 0-1 0V9a3 3 0 0 1-6 0V7.5a.5.5 0 0 0-1 0V9a4 4 0 0 0 3 3.858V14H5.5a.5.5 0 0 0 0 1h5a.5.5 0 0 0 0-1H9v-1.142A4 4 0 0 0 12 9z" fill="currentColor" /></symbol><symbol fill="#0b0b0b" id="developer-command-measure" viewBox="0 0 16 16"><path d="M1 11h14V6H1v5zm15 .2c0 .5-.4.8-.8.8H.8c-.4 0-.8-.4-.8-.8V5.8c0-.4.4-.8.8-.8h14.3c.5 0 .9.4.9.8v5.4z" /><path d="M9 6v3c0 .2.3.4.5.4s.5-.2.5-.4V6H9zm4 0v3c0 .2.3.4.5.4.2-.1.5-.2.5-.4V6h-1zm-7.9-.3L4 6v2.8c0 .2.4.4.6.4s.5-.2.5-.4V5.7zM11 5v2.7c0 .2.3.4.5.4s.5-.2.5-.4V5h-1zm-5 .1v2.6c0 .2.5.4.7.4.2 0 .6-.2.6-.4l-.1-2.6H6zm-4 0v2.6c0 .2.3.4.5.4s.5-.2.5-.4V5.1H2z" /></symbol><symbol fill="#0b0b0b" id="developer-tool-dom" viewBox="0 0 16 16"><path d="M6.052 1.13L1.164 5.57a.5.5 0 0 0 0 .74l5 4.56a.5.5 0 0 0 .673-.74l-5-4.559v.74l4.887-4.44a.5.5 0 0 0-.672-.741zm4.896 13.74l4.888-4.44a.5.5 0 0 0 0-.74l-5-4.56a.5.5 0 1 0-.673.74l5 4.559v-.74l-4.887 4.44a.5.5 0 0 0 .672.741z" /></symbol><symbol id="pinremove" viewBox="0 0 16 16"><path d="M11.414 10l2.293-2.293a1 1 0 0 0 0-1.414 4.418 4.418 0 0 0-.8-.622L11.425 7.15h.008l-4.3 4.3v-.017l-1.48 1.476a3.865 3.865 0 0 0 .692.834 1 1 0 0 0 1.37-.042L10 11.414l3.293 3.293a1 1 0 0 0 1.414-1.414zm3.293-8.707a1 1 0 0 0-1.414 0L9.7 4.882A2.382 2.382 0 0 1 8 2.586V2a1 1 0 0 0-1.707-.707l-5 5A1 1 0 0 0 2 8h.586a2.382 2.382 0 0 1 2.3 1.7l-3.593 3.593a1 1 0 1 0 1.414 1.414l12-12a1 1 0 0 0 0-1.414zm-9 6a4.414 4.414 0 0 0-1.571-1.015l2.143-2.142a4.4 4.4 0 0 0 1.013 1.571 4.191 4.191 0 0 0 .9.684L6.39 8.2a4.2 4.2 0 0 0-.683-.907z" fill="currentColor" /></symbol><symbol id="refresh" viewBox="0 0 16 16"><path d="M15 1a1 1 0 0 0-1 1v2.418A6.995 6.995 0 1 0 8 15a6.954 6.954 0 0 0 4.95-2.05 1 1 0 0 0-1.414-1.414A5.019 5.019 0 1 1 12.549 6H10a1 1 0 0 0 0 2h5a1 1 0 0 0 1-1V2a1 1 0 0 0-1-1z" fill="currentColor" /></symbol><symbol id="location-mac-disabled" viewBox="0 0 16 16"><path d="M8 16l3.75-8.75L8 11v5zm6.707-14.707a1 1 0 0 0-1.414 0l-1.768 1.768L0 8h6.586l-5.293 5.293a1 1 0 1 0 1.414 1.414l12-12a1 1 0 0 0 0-1.414z" fill="currentColor" /></symbol><symbol id="developer-rotate-viewport" viewBox="0 0 16 16"><path d="M12.3 11.5l-2.2-8.2-.3-.3c-.1-.1-.2-.1-.4-.1L4 4.4c-.2.1-.4.4-.3.6l2.2 8.2c0 .1.1.2.2.3.1 0 .2.1.3.1h.1l5.4-1.5c.3 0 .5-.3.4-.6zM9.2 4.1l1.5 5.5-4.4 1.2-1.5-5.5 4.4-1.2zm-2.4 8.4l-.3-1.1 4.4-1.2.3 1.1-4.4 1.2zm-3.1 1.2c-1.2 0-3.4-.6-3.7-2.8-.3-2.2 1.3-3.3 2.1-3.5.2-.1.4.1.5.3.1.2-.1.4-.3.5-.1 0-1.8.6-1.6 2.7.2 1.5 1.6 1.9 2.4 2l-.7-2.4c0-.2.2-.5.4-.5.2-.1.4 0 .5.2l.9 3c0 .1 0 .3-.1.4-.1.1-.2.1-.4.1zm8.6-10.6c1.2 0 3.4.6 3.7 2.8.3 2.2-1.3 3.3-2.1 3.5-.2.1-.4-.1-.5-.3-.1-.2.1-.4.3-.5.1 0 1.8-.6 1.6-2.7-.2-1.5-1.6-1.9-2.4-2l.7 2.4c.1.2-.1.4-.3.5-.2.1-.4-.1-.5-.3l-.9-3c0-.1 0-.3.1-.4h.3z" /></symbol><symbol id="pocket" viewBox="0 0 16 16"><path d="M8 15a8 8 0 0 1-8-8V3a2 2 0 0 1 2-2h12a2 2 0 0 1 2 2v4a8 8 0 0 1-8 8zm3.985-10.032a.99.99 0 0 0-.725.319L7.978 8.57 4.755 5.336A.984.984 0 0 0 4 4.968a1 1 0 0 0-.714 1.7l-.016.011 3.293 3.306.707.707a1 1 0 0 0 1.414 0l.707-.707L12.7 6.679a1 1 0 0 0-.715-1.711z" fill="currentColor" /></symbol><symbol id="identity-icon-hover" viewBox="0 0 16 16"><path d="M8 1a7 7 0 1 1-7 7 7 7 0 0 1 7-7zm0 3a1 1 0 1 1-1 1 1 1 0 0 1 1-1zm0 3a1 1 0 0 1 1 1v3a1 1 0 0 1-2 0V8a1 1 0 0 1 1-1z" fill="currentColor" fill-rule="evenodd" /></symbol><symbol id="play" viewBox="0 0 16 16"><g fill="currentColor"><path d="M8 2a6 6 0 1 0 6 6 6.007 6.007 0 0 0-6-6zm0 11a5 5 0 1 1 5-5 5.006 5.006 0 0 1-5 5z" /><path d="M6.75 4.969A.5.5 0 0 0 6 5.4v5.2a.5.5 0 0 0 .75.433l4.5-2.6a.5.5 0 0 0 0-.866z" /></g></symbol><symbol id="maximize" viewBox="0 0 16 16"><path d="M14 1H2a1 1 0 0 0-1 1v12a1 1 0 0 0 1 1h12a1 1 0 0 0 1-1V2a1 1 0 0 0-1-1zm-1 12H3V3h10z" fill="currentColor" /><path d="M5 9h2v2a1 1 0 0 0 2 0V9h2a1 1 0 0 0 0-2H9V5a1 1 0 0 0-2 0v2H5a1 1 0 0 0 0 2z" fill="currentColor" /></symbol><symbol fill="currentColor" fill-opacity="" id="autoplay-media-blocked" viewBox="0 0 16 16"><path d="M14.944 4.056l-1.478 1.478a5.989 5.989 0 0 1-7.93 7.93l-1.485 1.485A7.981 7.981 0 0 0 14.944 4.056z" /><path d="M11.974 7.026l-4.608 4.608 4.8-2.771a1 1 0 0 0 0-1.726zm2.733-5.733a1 1 0 0 0-1.414 0l-.4.4A7.8 7.8 0 0 0 10.98.574a1 1 0 0 0-.746 1.856 5.767 5.767 0 0 1 1.234.688L9.175 5.411 6.494 3.863A1 1 0 0 0 5 4.726v4.86l-1.885 1.885A5.919 5.919 0 0 1 3 4.721V6a.5.5 0 0 0 1 0V2.5a.5.5 0 0 0-.5-.5h-3a.5.5 0 0 0 0 1h1.262a7.963 7.963 0 0 0-.074 9.9l-.395.395a1 1 0 1 0 1.414 1.414l12-12a1 1 0 0 0 0-1.416z" /></symbol><symbol id="available-updates" viewBox="0 0 16 16"><path d="M12 16a4 4 0 1 0-4-4 4 4 0 0 0 4 4zm2.2-3.54l-1.92 1.92a.38.38 0 0 1-.54 0L9.8 12.46a.38.38 0 1 1 .54-.54l1.27 1.27V9.88a.38.38 0 0 1 .77 0v3.3l1.27-1.27a.38.38 0 0 1 .54.54z" fill="#0c0c0d" /><path d="M6 12a2.56 2.56 0 0 1 1 .21V12a5 5 0 0 1 5-5V5a1 1 0 0 0-1-1H7.75A.77.77 0 0 1 7 3.25c0-.75 1-.78 1-1.75S7.1 0 6 0 4 .64 4 1.5s1 1 1 1.75a.77.77 0 0 1-.75.75H1a1 1 0 0 0-1 1v2.25A.77.77 0 0 0 .75 8c.75 0 .78-1 1.75-1S4 7.9 4 9s-.64 2-1.5 2-1-1-1.75-1a.77.77 0 0 0-.75.75V15a1 1 0 0 0 1 1h3.25a.77.77 0 0 0 .75-.75c0-.75-1-.78-1-1.75S4.9 12 6 12z" fill="#0c0c0d" /></symbol><symbol id="developer-console-output" viewBox="0 0 12 12"><path d="M10 5H4.3l2.5-2.6-1.3-1.2L1 6l4.5 4.8 1.4-1.2L4.3 7H10z" /></symbol><symbol fill="#0b0b0b" id="developer-tool-network" viewBox="0 0 16 16"><rect fill-opacity=".5" height="1" rx=".5" width="8" x="2" y="3" /><rect height="1" rx=".5" width="8" x="6" y="6" /><rect fill-opacity=".5" height="1" rx=".5" width="8" x="4" y="9" /><rect height="1" rx=".5" width="5" x="2" y="12" /></symbol><symbol id="history-item-outline" viewBox="0 0 16 16"><path d="M8 12a4 4 0 1 1 4-4 4 4 0 0 1-4 4zm0-6a2 2 0 1 0 2 2 2 2 0 0 0-2-2z" fill="currentColor" /></symbol><symbol id="notification" viewBox="0 0 16 16"><g fill="currentColor"><path d="M13.577 1H2.423A2.426 2.426 0 0 0 0 3.423v6.154A2.426 2.426 0 0 0 2.423 12H8.26l2.966 3.633A1 1 0 0 0 13 15v-3h.577A2.426 2.426 0 0 0 16 9.577V3.423A2.426 2.426 0 0 0 13.577 1zM14 9.577a.423.423 0 0 1-.423.423H12a1 1 0 0 0-1 1v1.194l-1.491-1.827A1 1 0 0 0 8.734 10H2.423A.423.423 0 0 1 2 9.577V3.423A.423.423 0 0 1 2.423 3h11.154a.423.423 0 0 1 .423.423z" /><path d="M11.5 5h-7a.5.5 0 0 0 0 1h7a.5.5 0 0 0 0-1zm0 2h-7a.5.5 0 0 0 0 1h7a.5.5 0 0 0 0-1z" /></g></symbol><symbol id="location" viewBox="0 0 16 16"><path d="M8 1a7 7 0 1 0 7 7 7.008 7.008 0 0 0-7-7zm1 11.9V12a1 1 0 0 0-2 0v.9A5.015 5.015 0 0 1 3.1 9H4a1 1 0 0 0 0-2h-.9A5.015 5.015 0 0 1 7 3.1V4a1 1 0 0 0 2 0v-.9A5.015 5.015 0 0 1 12.9 7H12a1 1 0 0 0 0 2h.9A5.015 5.015 0 0 1 9 12.9z" fill="currentColor" /></symbol><symbol fill="#0b0b0b" id="developer-tool-inspector" viewBox="0 0 16 16"><path d="M3 3.995v8.01c0-.01.005-.005.002-.005h9.996c-.001 0 .002-.003.002.005v-8.01c0 .01-.005.005-.002.005H3.002C3.003 4 3 4.003 3 3.995zm-1 0C2 3.445 2.456 3 3.002 3h9.996C13.55 3 14 3.456 14 3.995v8.01c0 .55-.456.995-1.002.995H3.002A1.005 1.005 0 0 1 2 12.005v-8.01z" /><path d="M8.5 3.5V2a.5.5 0 0 0-1 0v1.5a.5.5 0 0 0 1 0zM1 8.5h1a.5.5 0 0 0 0-1H1a.5.5 0 0 0 0 1zm13 0h1a.5.5 0 1 0 0-1h-1a.5.5 0 1 0 0 1zM8.5 14v-1.5a.5.5 0 1 0-1 0V14a.5.5 0 1 0 1 0z" /></symbol><symbol fill="#0b0b0b" id="developer-command-pick" viewBox="0 0 16 16"><path d="M15 7.667V3.002A1.01 1.01 0 0 0 13.993 2H2.007C1.45 2 1 2.449 1 3.002v9.996C1 13.544 1.45 14 2.007 14h6.818l-.37-1H2V3h12v4.334l1 .333z" /><path d="M9 8l1.981 5.843 4.044-3.966z" fill-opacity=".3" /><path d="M8.526 8.16l1.982 5.844a.5.5 0 0 0 .824.196l4.043-3.966a.5.5 0 0 0-.202-.835L9.15 7.523a.5.5 0 0 0-.623.638zm.948-.32l-.623.637 6.025 1.877-.201-.834-4.044 3.966.824.197-1.981-5.844z" /><path d="M12.674 12.39l1.973 1.964a.5.5 0 1 0 .706-.708L13.38 11.68a.5.5 0 0 0-.706.709z" /></symbol><symbol id="get-add-ons" viewBox="0 0 16 16"><path d="M9.5 3s.428 2.43 1.249 3.251S14 7.5 14 7.5s-2.43.394-3.251 1.215S9.5 12 9.5 12s-.394-2.464-1.215-3.285S5 7.5 5 7.5s2.464-.428 3.285-1.249S9.5 3 9.5 3m0-2h-.014a2 2 0 0 0-1.96 1.68 7.536 7.536 0 0 1-.659 2.154 7.9 7.9 0 0 1-2.212.7 2 2 0 0 0 .029 3.945 7.733 7.733 0 0 1 2.183.658 7.74 7.74 0 0 1 .658 2.185A2 2 0 0 0 9.489 14H9.5a2 2 0 0 0 1.971-1.657 7.891 7.891 0 0 1 .7-2.209 7.566 7.566 0 0 1 2.154-.659 2 2 0 0 0 .027-3.944 7.694 7.694 0 0 1-2.181-.7 7.731 7.731 0 0 1-.7-2.181A2 2 0 0 0 9.5 1zM3 15.5a.5.5 0 0 1-.49-.421 3.047 3.047 0 0 0-.4-1.186 3.047 3.047 0 0 0-1.186-.4.5.5 0 0 1-.007-.986 3.147 3.147 0 0 0 1.192-.417 3.051 3.051 0 0 0 .4-1.171A.5.5 0 0 1 3 10.5a.5.5 0 0 1 .492.413 3.094 3.094 0 0 0 .417 1.179 3.142 3.142 0 0 0 1.178.416.5.5 0 0 1-.007.985 3.007 3.007 0 0 0-1.172.4 3.166 3.166 0 0 0-.416 1.192A.5.5 0 0 1 3 15.5zm-.5-11a.5.5 0 0 1-.49-.42 2.344 2.344 0 0 0-.265-.82 2.344 2.344 0 0 0-.82-.265.5.5 0 0 1-.007-.986 2.41 2.41 0 0 0 .827-.277A2.306 2.306 0 0 0 2.007.92.5.5 0 0 1 2.5.5a.5.5 0 0 1 .492.412 2.353 2.353 0 0 0 .278.818 2.372 2.372 0 0 0 .816.276.5.5 0 0 1-.007.985 2.306 2.306 0 0 0-.811.266 2.41 2.41 0 0 0-.277.827.5.5 0 0 1-.491.416z" fill="currentColor" /></symbol><symbol id="extensions" viewBox="0 0 16 16"><path d="M14.5 8c-.971 0-1 1-1.75 1a.765.765 0 0 1-.75-.75V5a1 1 0 0 0-1-1H7.75A.765.765 0 0 1 7 3.25c0-.75 1-.779 1-1.75C8 .635 7.1 0 6 0S4 .635 4 1.5c0 .971 1 1 1 1.75a.765.765 0 0 1-.75.75H1a1 1 0 0 0-1 1v2.25A.765.765 0 0 0 .75 8c.75 0 .779-1 1.75-1C3.365 7 4 7.9 4 9s-.635 2-1.5 2c-.971 0-1-1-1.75-1a.765.765 0 0 0-.75.75V15a1 1 0 0 0 1 1h3.25a.765.765 0 0 0 .75-.75c0-.75-1-.779-1-1.75 0-.865.9-1.5 2-1.5s2 .635 2 1.5c0 .971-1 1-1 1.75a.765.765 0 0 0 .75.75H11a1 1 0 0 0 1-1v-3.25a.765.765 0 0 1 .75-.75c.75 0 .779 1 1.75 1 .865 0 1.5-.9 1.5-2s-.635-2-1.5-2z" fill="currentColor" /></symbol><symbol fill="#0b0b0b" id="developer-command-paintflashing" viewBox="0 0 16 16"><path d="M3 6.997v6.006c0-.006.003-.003.002-.003h9.996c-.001 0 .002-.003.002.003V6.997c0 .006-.003.003-.002.003H3.002C3.003 7 3 7.003 3 6.997zm-1 0C2 6.447 2.456 6 3.002 6h9.996C13.55 6 14 6.453 14 6.997v6.006c0 .55-.456.997-1.002.997H3.002A1.004 1.004 0 0 1 2 13.003V6.997zM8.5 4V1.5a.5.5 0 0 0-1 0V4H4a.5.5 0 0 0 0 1h8a.5.5 0 1 0 0-1H8.5z" /><path d="M13 10v3H3v-3z" fill-opacity=".3" /></symbol><symbol fill="#0b0b0b" id="developer-pane-collapse" viewBox="0 0 16 16"><path d="M12 3h2v10h-2V3zM5 9.9V6.1L8 8 5 9.9z" fill-opacity=".3" /><path d="M14 2H2c-.6 0-1 .4-1 1v10c0 .6.4 1 1 1h12c.6 0 1-.4 1-1V3c0-.6-.4-1-1-1zM2 13V3h9v10H2zm12 0h-2V3h2v10zM8.5 7.2l-3-1.9C4.6 4.7 4 5 4 6.1v3.8c0 1.1.6 1.4 1.5.8l3-1.9c1-.5 1-1 0-1.6zM5 9.9V6.1L8 8 5 9.9z" /></symbol><symbol id="type-controls-serif" viewBox="0 0 24 24"><path d="M8.23 18.748v-1.016l1.182-.146c.065-.013.12-.055.166-.127s.052-.143.02-.215L8.513 14.07H4.236l-1.104 3.096c-.039.104-.02.199.059.283s.153.13.225.137l1.123.146v1.016H.232v-1.016l1.123-.166L5.837 5.008h2.275l4.443 12.197c.052.124.103.21.151.259s.145.089.288.122l.762.146v1.016H8.23zM6.296 8.084l-1.68 4.805h3.398L6.296 8.084zM20.05 18.748l-.264-.996a8.55 8.55 0 0 1-1.083.625 8.54 8.54 0 0 1-1.112.425c-.409.127-.835.19-1.277.19-.364 0-.704-.06-1.02-.181s-.592-.293-.829-.518-.424-.497-.561-.815-.204-.677-.204-1.074c0-.299.024-.576.073-.83s.146-.49.293-.708.356-.426.63-.625.637-.392 1.089-.581 1.008-.377 1.665-.566 1.445-.384 2.363-.586v-.244c0-.098.003-.186.01-.264 0-.091.003-.182.01-.273.007-.189-.013-.392-.059-.61s-.137-.42-.273-.605-.329-.338-.576-.459-.569-.181-.967-.181c-.137 0-.259.003-.366.01s-.197.016-.269.029a5.337 5.337 0 0 0-.225.039v1.895h-2.061a1.09 1.09 0 0 1-.449-.049c-.11-.039-.213-.107-.308-.205s-.142-.25-.142-.459c0-.371.132-.703.396-.996.263-.293.607-.542 1.033-.747s.904-.363 1.435-.474a7.704 7.704 0 0 1 1.585-.166c.572 0 1.096.042 1.57.127s.883.249 1.224.493c.342.244.604.587.79 1.03s.278 1.025.278 1.748v5.137c0 .124.042.229.127.317s.188.138.312.151l.879.059v.938H20.05zm-.257-5.156c-.645.13-1.177.264-1.597.4s-.754.293-1.001.469-.42.376-.518.601-.146.487-.146.786c0 .208.034.402.103.581s.166.335.293.469.278.239.454.317.368.117.576.117c.215 0 .432-.023.649-.068s.415-.094.591-.146c.208-.065.407-.14.596-.225v-3.301z" /></symbol><symbol id="open" viewBox="0 0 16 16"><path d="M14.859 3.2a1.335 1.335 0 0 1-1.217.8H13v1h1v8H2V5h8V4h-.642a1.365 1.365 0 0 1-1.325-1.11L6.584 1.538A2 2 0 0 0 5.219 1H2a2 2 0 0 0-2 2v10a2 2 0 0 0 2 2h12a2 2 0 0 0 2-2V5a2 2 0 0 0-1.141-1.8zM2 3h3.219l1.072 1H2zm7.854-.146L11 1.707V8.5a.5.5 0 0 0 1 0V1.707l1.146 1.146a.5.5 0 1 0 .707-.707l-2-2a.5.5 0 0 0-.707 0l-2 2a.5.5 0 0 0 .707.707z" fill="currentColor" /></symbol><symbol fill="#0b0b0b" id="developer-geometry-editor" viewBox="0 0 16 16"><path d="M14 8h-2v4H3V8H1v1H0V6h1v1h2V3h8v1H4v7h7V3h1v4h2V6h1v3h-1V8zm-6 6h1v1H6v-1h1v-3h1v3zM7 1H6V0h3v1H8v3H7V1z" /><path d="M3.5 9a1.5 1.5 0 1 0 0-3 1.5 1.5 0 0 0 0 3zm4 4a1.5 1.5 0 1 0 0-3 1.5 1.5 0 0 0 0 3zm4-4a1.5 1.5 0 1 0 0-3 1.5 1.5 0 0 0 0 3zm-4-4a1.5 1.5 0 1 0 0-3 1.5 1.5 0 0 0 0 3z" /></symbol><symbol id="menu" viewBox="0 0 16 16"><path d="M3 4h10a1 1 0 0 0 0-2H3a1 1 0 0 0 0 2zm10 3H3a1 1 0 0 0 0 2h10a1 1 0 0 0 0-2zm0 5H3a1 1 0 0 0 0 2h10a1 1 0 0 0 0-2z" fill="currentColor" /></symbol><symbol id="import" viewBox="0 0 16 16"><path d="M13.374 1H4.623A2.83 2.83 0 0 0 2 4v4h2V4a.928.928 0 0 1 .833-1h8.333A.928.928 0 0 1 14 4v8a.928.928 0 0 1-.833 1H4.833A.928.928 0 0 1 4 12v-1H2v1a2.833 2.833 0 0 0 2.627 3h9.623A1.888 1.888 0 0 0 16 13V4a2.833 2.833 0 0 0-2.626-3z" fill="currentColor" /><path d="M7.146 11.146a.5.5 0 1 0 .707.707l2-2a.5.5 0 0 0 0-.707l-2-2a.5.5 0 0 0-.707.707L8.293 9H1.5a.5.5 0 0 1-.5-.5v-2a.5.5 0 0 0-1 0v2A1.5 1.5 0 0 0 1.5 10h6.793z" fill="currentColor" /></symbol><symbol id="narrate-slower" viewBox="0 0 24 24"><path d="M1.684 13.486a.5.5 0 0 1-.474-.341c-.528-1.58-.23-5.767 4.097-7.921 1.315-.656 2.589-.988 3.787-.988 3.237 0 5.096 2.341 5.99 3.465.158.199.181.533 0 .713-.793.794-1.852 1.542-3.231 2.286-2.46 1.327-5.045 1.775-7.121 2.134-1.123.194-2.093.361-2.89.627a.491.491 0 0 1-.158.025z" /><path d="M23.185 5.465c-.86-1.121-2.074-1.819-3.168-1.819-.641 0-1.556.23-2.273 1.328-.374.571-.577 1.161-.773 1.73-.512 1.482-1.041 3.016-4.662 4.969-2.316 1.249-4.707 1.664-6.815 2.03-2.524.438-4.704.814-5.455 2.622a.5.5 0 0 0 .522.688c.667-.081 1.533.041 2.434.217-.122.146-.261.286-.391.418-.38.385-.774.783-.657 1.292.108.474.604.699.966.828a3.87 3.87 0 0 0 1.283.217c1.241 0 2.216-.579 2.649-1.539 1.704.287 3.487.313 5.043.313l1.639-.006c.066.056.178.166.264.25.504.506 1.348 1.351 2.721 1.351a3.5 3.5 0 0 0 .416-.026c.687-.102 1.351-.267 1.574-.787.227-.528-.123-1.023-.526-1.597-.481-.685-1.08-1.532-.998-2.652.196-.397.368-.824.546-1.267.479-1.19.975-2.421 2.12-3.513a2.654 2.654 0 0 0 1.63.549 3.02 3.02 0 0 0 1.295-.3c.624-.293 1.104-.967 1.316-1.847.29-1.207.029-2.496-.7-3.449zm-2.788 2.292a.5.5 0 1 1 0-1 .5.5 0 0 1 0 1z" /></symbol><symbol id="toolbar" viewBox="0 0 16 16"><path d="M13 1H3a3.007 3.007 0 0 0-3 3v8a3.009 3.009 0 0 0 3 3h10a3.005 3.005 0 0 0 3-3V4a3.012 3.012 0 0 0-3-3zM3 3h10a1 1 0 0 1 1 1v1H2V4a1 1 0 0 1 1-1zm11 3v1H2V6zm-1 7H3a1 1 0 0 1-1-1V8h12v4a1 1 0 0 1-1 1z" fill="currentColor" /></symbol><symbol id="bookmark" viewBox="0 0 16 16"><path d="M15.845 6.064A1.1 1.1 0 0 0 15 5.331L10.911 4.6 8.985.735a1.1 1.1 0 0 0-1.969 0L5.089 4.6l-4.081.729a1.1 1.1 0 0 0-.615 1.834L3.32 10.31l-.609 4.36a1.1 1.1 0 0 0 1.6 1.127L8 13.873l3.69 1.927a1.1 1.1 0 0 0 1.6-1.127l-.61-4.363 2.926-3.146a1.1 1.1 0 0 0 .239-1.1z" fill="currentColor" /></symbol><symbol id="mouse-pointer" viewBox="0 0 16 16"><path d="M12.408 8.217l-8.083-6.7A.2.2 0 0 0 4 1.672V12.3a.2.2 0 0 0 .333.146l2.56-2.372 1.857 3.9A1.125 1.125 0 1 0 10.782 13L8.913 9.075l3.4-.51a.2.2 0 0 0 .095-.348z" fill="currentColor" /></symbol><symbol id="zoom-out" viewBox="0 0 16 16"><path d="M14 7H9V2a1 1 0 0 0-2 0v5H2a1 1 0 0 0 0 2h5v5a1 1 0 0 0 2 0V9h5a1 1 0 0 0 0-2z" fill="currentColor" /></symbol><symbol fill="currentColor" fill-opacity="" id="cryptominers-disabled" viewBox="0 0 16 16"><path d="M14.71 1.29a1 1 0 0 0-1.42 0l-.7.71H9v-.5a.5.5 0 0 0-.5-.5h-1a.5.5 0 0 0-.5.5V2H5a2 2 0 0 0-1.6.8L2.2 4.4A1 1 0 0 0 3 6h4v1.59l-5.71 5.7a1 1 0 0 0 0 1.42 1 1 0 0 0 1.42 0l12-12a1 1 0 0 0 0-1.42zM7 14.5a.5.5 0 0 0 .5.5h1a.5.5 0 0 0 .5-.5V10l-2 2z" /></symbol><symbol id="developer-console-input" viewBox="0 0 12 12"><path d="M6.5 1.2L5.4 2.3 9 6 5.3 9.7l1.1 1.1L11 6 6.5 1.2zm-5 0L.4 2.3 4 6 .3 9.7l1.1 1.1L6 6 1.5 1.2z" /></symbol><symbol id="warning" viewBox="0 0 16 16"><path d="M14.742 12.106L9.789 2.2a2 2 0 0 0-3.578 0l-4.953 9.91A2 2 0 0 0 3.047 15h9.905a2 2 0 0 0 1.79-2.894zM7 5a1 1 0 0 1 2 0v4a1 1 0 0 1-2 0zm1 8.25A1.25 1.25 0 1 1 9.25 12 1.25 1.25 0 0 1 8 13.25z" fill="currentColor" /></symbol><symbol id="customize" viewBox="0 0 16 16"><path d="M4 10a1.994 1.994 0 0 0-1.911 1.44c0 .01-.014.015-.017.025-.362 1.135-.705 2.11-1.759 2.573l-.023.012-.024.012A.5.5 0 0 0 0 14.5a.5.5 0 0 0 .5.5 6.974 6.974 0 0 0 4.825-1.5c.006-.006.007-.013.013-.019A1.993 1.993 0 0 0 4 10zM15.693.307a.984.984 0 0 0-1.338-.046l-8.031 7a.982.982 0 0 0-.049 1.433l1.032 1.031a.983.983 0 0 0 .693.287h.033a.982.982 0 0 0 .706-.335l7-8.031a.982.982 0 0 0-.046-1.339z" fill="currentColor" /></symbol><symbol id="fullscreen-exit" viewBox="0 0 16 16"><path d="M7 8H2a1 1 0 0 0 0 2h2.586l-3.293 3.293a1 1 0 1 0 1.414 1.414L6 11.414V14a1 1 0 0 0 2 0V9a1 1 0 0 0-1-1zm7-2h-2.586l3.293-3.293a1 1 0 0 0-1.414-1.414L10 4.586V2a1 1 0 0 0-2 0v5a1 1 0 0 0 1 1h5a1 1 0 0 0 0-2z" fill="currentColor" /></symbol><symbol fill="#0b0b0b" id="developer-command-eyedropper" viewBox="0 0 16 16"><path d="M8.3 2.9l4.9 4.9c.2.2.5.4.8.1.2-.2.1-.5-.1-.8L11.6 5l1.8-1.8c.2-.2.4-.5.1-.8-.2-.2-.5-.1-.8.1L11 4.3l-2.1-2c-.2-.3-.5-.4-.8-.2-.2.3-.1.6.2.8zm2.1 4.5l-6.1 6-2.4.8.7-2.4 6.2-6.1-.7-.7L2 11c-.1.1-.2.3-.2.4L1 13.7s-.1.7.1 1c.3.3.9.3 1.2.2l2.3-.8c.2-.1.3-.1.4-.3L11 8l-.6-.6z" /><path d="M7.1 7.1l-4.2 3.8-1.4 3.5 2.9-.6 2.8-2.7z" opacity=".5" /></symbol><symbol id="redo" viewBox="0 0 16 16"><path d="M0 11a1 1 0 0 0 2 0 5 5 0 0 1 9.584-2H8.996a1 1 0 0 0 0 2H14a1 1 0 0 0 1-1V5a1 1 0 1 0-2 0v2.392A7 7 0 0 0 0 11z" fill="currentColor" /></symbol><symbol id="cut" viewBox="0 0 16 16"><path d="M11.5 10a2.481 2.481 0 0 0-.379.038L3.977 1.214a2.5 2.5 0 0 0-.371 3.515l2.789 3.444-1.51 1.866A2.486 2.486 0 0 0 4.5 10a2.522 2.522 0 1 0 2.329 1.609L8 10.159 9.172 11.6A2.5 2.5 0 1 0 11.5 10zm-7 3.75a1.25 1.25 0 1 1 1.25-1.25 1.251 1.251 0 0 1-1.25 1.25zm7 0a1.25 1.25 0 1 1 1.25-1.25 1.251 1.251 0 0 1-1.25 1.25zm.9-9.021a2.5 2.5 0 0 0-.371-3.515L8.5 5.569l1.608 1.986z" fill="currentColor" /></symbol><symbol id="audio" viewBox="0 0 16 16"><g fill="currentColor"><path d="M8.587 2.354L5.5 5H4.191A2.191 2.191 0 0 0 2 7.191v1.618A2.191 2.191 0 0 0 4.191 11H5.5l3.17 2.717a.2.2 0 0 0 .33-.152V2.544a.25.25 0 0 0-.413-.19zm2.988.921a.5.5 0 0 0-.316.949 3.97 3.97 0 0 1 0 7.551.5.5 0 0 0 .316.949 4.971 4.971 0 0 0 0-9.449z" /><path d="M13 8a3 3 0 0 0-2.056-2.787.5.5 0 1 0-.343.939A2.008 2.008 0 0 1 12 8a2.008 2.008 0 0 1-1.4 1.848.5.5 0 0 0 .343.939A3 3 0 0 0 13 8z" /></g></symbol><symbol fill="currentColor" fill-opacity="" id="sidebar-left" viewBox="0 0 16 16"><path d="M3 1h10a3.008 3.008 0 0 1 3 3v8a3.009 3.009 0 0 1-3 3H3a3.005 3.005 0 0 1-3-3V4a3.013 3.013 0 0 1 3-3zm11 11V4a1 1 0 0 0-1-1H8v10h5a1 1 0 0 0 1-1zM2 12a1 1 0 0 0 1 1h4V3H3a1 1 0 0 0-1 1v8z" /><path d="M3.5 5h2a.5.5 0 0 0 0-1h-2a.5.5 0 0 0 0 1zm0 2h2a.5.5 0 0 0 0-1h-2a.5.5 0 0 0 0 1zm1 2h1a.5.5 0 0 0 0-1h-1a.5.5 0 0 0 0 1z" /></symbol><symbol id="device-mobile" viewBox="0 0 16 16"><path d="M12 0H4a2 2 0 0 0-2 2v12a2 2 0 0 0 2 2h8a2 2 0 0 0 2-2V2a2 2 0 0 0-2-2zM9 15H7v-1h2zm3-2.5a.5.5 0 0 1-.5.5h-7a.5.5 0 0 1-.5-.5v-10a.5.5 0 0 1 .5-.5h7a.5.5 0 0 1 .5.5z" fill="currentColor" /></symbol><symbol id="identity-icon" viewBox="0 0 16 16"><path d="M8 15a7 7 0 1 1 7-7 7 7 0 0 1-7 7zM8 2a6 6 0 1 0 6 6 6 6 0 0 0-6-6zm0 10a1 1 0 0 1-1-1V8a1 1 0 0 1 2 0v3a1 1 0 0 1-1 1zm0-6a1 1 0 1 1 1-1 1 1 0 0 1-1 1z" fill="currentColor" fill-rule="evenodd" /></symbol><symbol id="audio-mute" viewBox="0 0 16 16"><g fill="currentColor"><path d="M13 8a2.813 2.813 0 0 0-.465-1.535l-.744.744A1.785 1.785 0 0 1 12 8a2.008 2.008 0 0 1-1.4 1.848.5.5 0 0 0 .343.939A3 3 0 0 0 13 8z" /><path d="M13.273 5.727A3.934 3.934 0 0 1 14 8a3.984 3.984 0 0 1-2.742 3.775.5.5 0 0 0 .316.949A4.985 4.985 0 0 0 15 8a4.93 4.93 0 0 0-1.012-2.988zm-4.603 7.99a.2.2 0 0 0 .33-.152V10l-2.154 2.154zm6.037-12.424a1 1 0 0 0-1.414 0L9 5.586V2.544a.25.25 0 0 0-.413-.19L5.5 5H4.191A2.191 2.191 0 0 0 2 7.191v1.618a2.186 2.186 0 0 0 1.659 2.118l-2.366 2.366a1 1 0 1 0 1.414 1.414l12-12a1 1 0 0 0 0-1.414z" /></g></symbol><symbol id="open-in-new" viewBox="0 0 16 16"><path d="M5 1H4a3 3 0 0 0-3 3v8a3 3 0 0 0 3 3h8a3 3 0 0 0 3-3v-1a1 1 0 0 0-2 0v1a1 1 0 0 1-1 1H4a1 1 0 0 1-1-1V4a1 1 0 0 1 1-1h1a1 1 0 1 0 0-2z" fill="currentColor" /><path d="M14.935 1.618A1 1 0 0 0 14.012 1h-5a1 1 0 1 0 0 2h2.586L8.305 6.293A1 1 0 1 0 9.72 7.707l3.293-3.293V7a1 1 0 1 0 2 0V2a1 1 0 0 0-.077-.382z" fill="currentColor" /></symbol><symbol id="secure-broken" viewBox="0 0 24 24"><path d="M18.75 9.977h-.727L6 22h12.75A2.25 2.25 0 0 0 21 19.75v-7.523a2.25 2.25 0 0 0-2.25-2.25zm-9.75 0V7a3 3 0 0 1 6 0v1.5l2.838-2.838A5.994 5.994 0 0 0 6 7v2.977h-.75A2.25 2.25 0 0 0 3 12.227v7.523a2.224 2.224 0 0 0 .105.645L13.523 9.977z" /><path d="M2.5 23a1.5 1.5 0 0 1-1.061-2.561l19-19A1.5 1.5 0 0 1 22.56 3.56l-19 19A1.5 1.5 0 0 1 2.5 23z" fill="#ff0039" /></symbol><symbol fill="#0b0b0b" id="developer-touch-events" viewBox="0 0 16 16"><path d="M12.5 5.3c-.2 0-.4 0-.6.1-.2-.6-.8-1-1.4-1-.3 0-.5.1-.8.2C9.4 4.2 9 4 8.6 4h-.4V1.5C8.2.7 7.5 0 6.7 0S5.2.7 5.2 1.5v6.6l-.7-.6c-.6-.6-1.6-.6-2.2 0-.5.6-.5 1.4-.1 2.1.3.4.6 1.1 1 1.8C4.2 13.6 5.3 16 7 16h3.9s3.1-1 3.1-4V6.7c.1-.8-.7-1.4-1.5-1.4zm.6 6.7c0 2-2.1 3-2.4 3H7c-1 0-2.1-2.4-2.9-4-.3-.8-.7-1.6-1-2-.2-.3-.2-.5-.1-.7.1-.1.2-.1.3-.1.1 0 .2 0 .3.1l1.5 1.5c.3.2.6.2.7.1.1 0 .4-.2.4-.5V1.5c0-.2.2-.4.5-.4s.5.2.5.4v5.3c0 .3.2.5.5.5s.5-.2.5-.5V5.5c0-.4.2-.5.5-.5.2 0 .5.2.5.4v2c-.1.3.2.6.4.6.3 0 .5-.2.5-.5V5.8c0-.2.2-.4.5-.4s.5.2.5.4v2.3c0 .3.2.5.5.5s.5-.2.5-.5V6.7c0-.2.2-.4.5-.4s.5.2.5.4V12z" /></symbol><symbol id="minimize" viewBox="0 0 16 16"><path d="M14 1H2a1 1 0 0 0-1 1v12a1 1 0 0 0 1 1h12a1 1 0 0 0 1-1V2a1 1 0 0 0-1-1zm-1 12H3V3h10z" fill="currentColor" /><path d="M5 9h6a1 1 0 0 0 0-2H5a1 1 0 0 0 0 2z" fill="currentColor" /></symbol><symbol id="accessibility" viewBox="0 0 16 16"><circle cx="8" cy="2" fill="currentColor" r="2" /><path d="M14.1 4.5H2c-.6 0-1 .4-1 1s.4 1 1 1h3.5v8.4c0 .6.4 1.1 1 1.1s1-.5 1-1.1v-4.1h1v4.1c0 .6.4 1.1 1 1.1s1-.5 1-1.1V6.4H14c.6 0 1-.4 1-1s-.4-.9-.9-.9z" fill="currentColor" /></symbol><symbol id="popup-block" viewBox="0 0 16 16"><g fill="currentColor"><path d="M12 8a4 4 0 1 0 4 4 4 4 0 0 0-4-4zm0 1a2.975 2.975 0 0 1 1.733.56L9.56 13.733A2.991 2.991 0 0 1 12 9zm0 6a2.975 2.975 0 0 1-1.733-.56l4.173-4.173A2.991 2.991 0 0 1 12 15z" /><path d="M13 1H3a3 3 0 0 0-3 3v8a3 3 0 0 0 3 3h3a1 1 0 0 0 0-2H3a1 1 0 0 1-1-1V6h12a1 1 0 0 0 2 0V4a3 3 0 0 0-3-3zM2 5V4a1 1 0 0 1 1-1h10a1 1 0 0 1 1 1v1z" /></g></symbol><symbol id="newtab-popular" viewBox="0 0 16 16"><path d="M15.207 2.793a1 1 0 0 0-.932-.268l-6.5 1.5a1 1 0 1 0 .45 1.949l3.1-.716L6.5 10.086 5.207 8.793a1 1 0 0 0-1.414 0l-3 3a1 1 0 1 0 1.414 1.414L4.5 10.914l1.293 1.293a1 1 0 0 0 1.414 0l5.535-5.535-.716 3.1a1 1 0 0 0 .75 1.2A1.025 1.025 0 0 0 13 11a1 1 0 0 0 .974-.775l1.5-6.5a1 1 0 0 0-.267-.932z" fill="currentColor" /></symbol><symbol fill="currentColor" fill-opacity="" id="fingerprinters" viewBox="0 0 16 16"><path d="M8 0a7 7 0 0 0-7 7 1 1 0 0 0 2 0 5 5 0 0 1 10 0 8.24 8.24 0 0 1-1.14 4.28A5.75 5.75 0 0 0 11 14a1 1 0 0 0 2 0 3.91 3.91 0 0 1 .63-1.79A10.18 10.18 0 0 0 15 7a7 7 0 0 0-7-7z" /><path d="M8 3a4 4 0 0 0-4 4 2 2 0 0 1-2 2 1 1 0 0 0 0 2 4 4 0 0 0 4-4 2 2 0 0 1 4 0 6.88 6.88 0 0 1-1.74 4.8 11 11 0 0 0-1.15 1.75 1 1 0 0 0 .44 1.34A.93.93 0 0 0 8 15a1 1 0 0 0 .89-.55 9.74 9.74 0 0 1 1-1.44A8.84 8.84 0 0 0 12 7a4 4 0 0 0-4-4z" /><path d="M8 6a1 1 0 0 0-1 1c0 4.21-5.26 6-5.32 6.05a1 1 0 0 0-.63 1.27A1 1 0 0 0 2 15a1.25 1.25 0 0 0 .32 0C2.59 14.86 9 12.66 9 7a1 1 0 0 0-1-1z" /></symbol><symbol id="exit" viewBox="0 0 24 24"><path d="M19 22H6a2 2 0 0 1-2-2v-2l2 2h12a1 1 0 0 0 1-1V5a1 1 0 0 0-1-1H6L4 6V4a2 2 0 0 1 2-2h13a2 2 0 0 1 2 2v16a2 2 0 0 1-2 2zm-6-9H5.4l4.2 4.154-1.414 1.477-6.619-6.614 6.454-6.606L9.5 6.95 5.424 11H13v2z" /></symbol><symbol id="library" viewBox="0 0 16 16"><path d="M5 3a1 1 0 0 0-1 1v10a1 1 0 0 0 2 0V4a1 1 0 0 0-1-1zm3-1a1 1 0 0 0-1 1v11a1 1 0 0 0 2 0V3a1 1 0 0 0-1-1zm7.939 11.658l-4-11a1 1 0 1 0-1.879.684l4 11a1 1 0 1 0 1.879-.684zM2 1a1 1 0 0 0-1 1v12a1 1 0 1 0 2 0V2a1 1 0 0 0-1-1z" fill="currentColor" /></symbol><symbol id="quit" viewBox="0 0 16 16"><path d="M8 6a1 1 0 0 0 1-1V1a1 1 0 0 0-2 0v4a1 1 0 0 0 1 1zm3.5-4.032a1 1 0 0 0-1 1.732A4.946 4.946 0 0 1 13 8 5 5 0 0 1 3 8a4.946 4.946 0 0 1 2.5-4.3 1 1 0 0 0-1-1.732 7 7 0 1 0 7.006 0z" fill="currentColor" /></symbol><symbol id="forward" viewBox="0 0 16 16"><path d="M15.707 7.293l-6-6a1 1 0 0 0-1.414 1.414L12.586 7H1a1 1 0 0 0 0 2h11.586l-4.293 4.293a1 1 0 1 0 1.414 1.414l6-6a1 1 0 0 0 0-1.414z" fill="currentColor" /></symbol><symbol id="recent-updates" viewBox="0 0 16 16"><path d="M12 8a4 4 0 1 0 4 4 4 4 0 0 0-4-4zm-2.2 3.54l1.92-1.92a.38.38 0 0 1 .54 0l1.92 1.92a.38.38 0 0 1-.54.54l-1.27-1.27v3.3a.38.38 0 0 1-.77 0v-3.3l-1.27 1.27a.38.38 0 0 1-.54-.54z" fill="#0c0c0d" /><path d="M6 12a2.56 2.56 0 0 1 1 .21V12a5 5 0 0 1 5-5V5a1 1 0 0 0-1-1H7.75A.77.77 0 0 1 7 3.25c0-.75 1-.78 1-1.75S7.1 0 6 0 4 .64 4 1.5s1 1 1 1.75a.77.77 0 0 1-.75.75H1a1 1 0 0 0-1 1v2.25A.77.77 0 0 0 .75 8c.75 0 .78-1 1.75-1S4 7.9 4 9s-.64 2-1.5 2-1-1-1.75-1a.77.77 0 0 0-.75.75V15a1 1 0 0 0 1 1h3.25a.77.77 0 0 0 .75-.75c0-.75-1-.78-1-1.75S4.9 12 6 12z" fill="#0c0c0d" /></symbol><symbol id="midi" viewBox="0 0 16 16"><path d="M13.948 1.1h-9a1 1 0 0 0-1 1v9.278a1.978 1.978 0 0 0-1-.278 2 2 0 1 0 2 2v-8h9v6.271a2.008 2.008 0 1 0 .992 1.729h.008v-11a1 1 0 0 0-1-1z" fill="currentColor" /></symbol><symbol id="history" viewBox="0 0 16 16"><path d="M8 0a8 8 0 1 0 8 8 8.009 8.009 0 0 0-8-8zm0 14a6 6 0 1 1 6-6 6.007 6.007 0 0 1-6 6zm3.5-6H8V4.5a.5.5 0 0 0-1 0v4a.5.5 0 0 0 .5.5h4a.5.5 0 0 0 0-1z" fill="currentColor" /></symbol><symbol id="window-new" viewBox="0 0 16 16"><path d="M15.5 12H13V9.5a.5.5 0 0 0-1 0V12H9.5a.5.5 0 0 0 0 1H12v2.5a.5.5 0 0 0 1 0V13h2.5a.5.5 0 0 0 0-1z" fill="currentColor" /><path d="M16 4a3 3 0 0 0-3-3H3a3 3 0 0 0-3 3v8a3 3 0 0 0 3 3h4.03v-.006a.994.994 0 0 0 0-1.987V13H3a1 1 0 0 1-1-1V6h12v1.952h.01c0 .017-.01.031-.01.048a1 1 0 0 0 2 0c0-.017-.009-.031-.01-.048H16zM2 5V4a1 1 0 0 1 1-1h10a1 1 0 0 1 1 1v1z" fill="currentColor" /></symbol><symbol id="video-recorder-disabled" viewBox="0 0 16 16"><path d="M9.7 13a1.345 1.345 0 0 0 1.3-1.389V9.552l3.037 2.648a1.007 1.007 0 0 0 .963.285V4l-9 9zm5.007-11.707a1 1 0 0 0-1.414 0l-2.452 2.452A1.284 1.284 0 0 0 9.7 3H2.3A1.345 1.345 0 0 0 1 4.389v7.222a1.4 1.4 0 0 0 .731 1.244l-.438.438a1 1 0 1 0 1.414 1.414l12-12a1 1 0 0 0 0-1.414z" fill="currentColor" /></symbol><symbol fill="#0b0b0b" id="developer-filter" viewBox="0 0 16 16"><path d="M6.6 8.4c0-.6-1.7.3-1.7-.3 0-.4-1.7-2.7-1.7-2.7H13s-1.8 2-1.8 2.7c0 .3-2.1-.1-2.1.3v6.1H7s-.4-4.1-.4-6.1z" fill-opacity=".3" /><path d="M2 2v2.3L4.7 9H6v5.4l2.1 1 1.8-.9V9h1.3L14 4.3V2H2zm11 2l-2.2 4H9v5.8l-.9.4-1.1-.5V8H5.2L3 4V3h10v1z" /></symbol><symbol fill="#0b0b0b" id="developer-play" viewBox="0 0 16 16"><path d="M4 12.5l8-5-8-5v10zm-1 0v-10a1 1 0 0 1 1.53-.848l8 5a1 1 0 0 1 0 1.696l-8 5A1 1 0 0 1 3 12.5z" fill-rule="evenodd" /></symbol><symbol id="microphone-disabled" viewBox="0 0 16 16"><path d="M11 8v1a3 3 0 0 1-3 3 2.958 2.958 0 0 1-.859-.141l-.775.775a4.012 4.012 0 0 0 .634.224V14H5.5a.5.5 0 0 0 0 1h5a.5.5 0 0 0 0-1H9v-1.142A4 4 0 0 0 12 9V7.5a.5.5 0 0 0-.146-.354zm3.707-6.707a1 1 0 0 0-1.414 0L10 4.586V3a2 2 0 1 0-4 0v5.586l-.945.945A2.856 2.856 0 0 1 5 9V7.5a.5.5 0 0 0-1 0V9a3.843 3.843 0 0 0 .248 1.338l-2.955 2.955a1 1 0 1 0 1.414 1.414l12-12a1 1 0 0 0 0-1.414z" fill="currentColor" /></symbol><symbol id="link" viewBox="0 0 16 16"><rect fill="currentColor" height="9.429" rx="1" ry="1" transform="rotate(-45 8 8)" width="2" x="7" y="3.286" /><path d="M2.354 4.522L4.485 2.39a.5.5 0 0 1 .711 0l3.19 3.19.014-.015a2 2 0 0 0 0-2.821L6.272.616a2 2 0 0 0-2.821 0L.616 3.451a2 2 0 0 0 0 2.821L2.744 8.4a1.993 1.993 0 0 0 2.8.02l-3.19-3.186a.5.5 0 0 1 0-.712zm13.062 5.237L13.287 7.63a2 2 0 0 0-2.821 0l-.015.015 3.189 3.189a.5.5 0 0 1 0 .711l-2.132 2.132a.5.5 0 0 1-.711 0L7.61 10.49a1.993 1.993 0 0 0 .02 2.8l2.128 2.128a2 2 0 0 0 2.821 0l2.835-2.835a2 2 0 0 0 .002-2.824z" fill="currentColor" /></symbol><symbol id="default-browser" viewBox="0 0 16 16"><path d="M8 6s0-4 3.5-4S15 5 15 6c0 4.5-7 9-7 9z" fill="currentColor" /><path d="M8 6s0-4-3.5-4S1 5 1 6c0 4.5 7 9 7 9l1-6z" fill="currentColor" /></symbol><symbol id="tab" viewBox="0 0 16 16"><path d="M15 11h-1V5a2 2 0 0 0-2-2H4a2 2 0 0 0-2 2v6H1a1 1 0 0 0 0 2h14a1 1 0 1 0 0-2z" fill="currentColor" /></symbol><symbol id="top-sites" viewBox="0 0 16 16"><g fill="currentColor"><rect height="6" rx="1" ry="1" width="6" x="1" y="1" /><rect height="6" rx="1" ry="1" width="6" x="9" y="1" /><rect height="6" rx="1" ry="1" width="6" x="1" y="9" /><rect height="6" rx="1" ry="1" width="6" x="9" y="9" /></g></symbol><symbol id="video-recorder" viewBox="0 0 16 16"><path d="M14.037 3.828L11 6.479v-2.09A1.345 1.345 0 0 0 9.7 3H2.3A1.345 1.345 0 0 0 1 4.389v7.222A1.345 1.345 0 0 0 2.3 13h7.4a1.345 1.345 0 0 0 1.3-1.389V9.552l3.037 2.648a1.007 1.007 0 0 0 .963.285V3.542a1.007 1.007 0 0 0-.963.286z" fill="currentColor" /></symbol><symbol id="tracking-protection-disabled" viewBox="0 0 32 32"><path d="M24.852 14.291c-.391 4.287-1.125 6.49-3.021 9.065A9.562 9.562 0 0 1 16 26.989a9.679 9.679 0 0 1-4.958-2.617l-1.415 1.415a11.419 11.419 0 0 0 6.261 3.207l.112.012.112-.012a11.4 11.4 0 0 0 7.33-4.452c2.12-2.879 2.977-5.42 3.4-10.07.121-1.339.151-4.013.155-6.057l-2.013 2.014c-.016 1.471-.053 2.996-.132 3.862z" fill="currentColor" /><path d="M16 24.336v-4.922l-2.921 2.921a6.513 6.513 0 0 0 2.919 2zM28.707 3.293a1 1 0 0 0-1.414 0l-1.576 1.576a2.59 2.59 0 0 0-.944-.377L16 2.985 7.227 4.491A2.69 2.69 0 0 0 5 7.153c-.006 2.031.007 5.681.155 7.319.349 3.823 1.007 6.221 2.4 8.554l-4.262 4.267a1 1 0 1 0 1.414 1.414l24-24a1 1 0 0 0 0-1.414zM10 8.78c.021 2.264.073 3.979.148 4.8a20.908 20.908 0 0 0 1.124 5.73l-2.244 2.248a17.451 17.451 0 0 1-1.88-7.267C7 12.676 7 8.765 7 7.159a.7.7 0 0 1 .563-.7L16 5.015l8.169 1.4L16 14.586V7.75z" fill="currentColor" /></symbol></defs></svg>