<?xml version="1.0" encoding="UTF-8" standalone="no"?>
<!--part of the rodentia icon theme by sixsixfive released under CC0 (https://creativecommons.org/publicdomain/zero/1.0/) on openclipart-->
<svg xmlns="http://www.w3.org/2000/svg" xmlns:xlink="http://www.w3.org/1999/xlink" viewBox="2 1 44 44">
 <defs id="0">
  <linearGradient id="2">
   <stop id="I" stop-color="#2e3436"/>
   <stop id="J" offset="1" stop-color="#2e3436" stop-opacity="0"/>
  </linearGradient>
  <linearGradient id="3">
   <stop id="K" stop-color="#eeeeec"/>
   <stop id="L" offset="1" stop-color="#eeeeec" stop-opacity="0"/>
  </linearGradient>
  <linearGradient id="4">
   <stop id="M" stop-color="#fff" stop-opacity="0.8"/>
   <stop id="N" offset="1" stop-color="#fff" stop-opacity="0"/>
  </linearGradient>
  <radialGradient cx="60.05" cy="51.39" r="15.03" id="5" xlink:href="#6" gradientUnits="userSpaceOnUse" gradientTransform="matrix(-1.404511,1.1888571,-1,-1.1813958,199.73811,11.750541)"/>
  <linearGradient id="6">
   <stop id="O" stop-color="#eee"/>
   <stop id="P" offset="1" stop-color="#dcdcdc"/>
  </linearGradient>
  <radialGradient cx="24.377" cy="45.941" r="23.08" id="7" xlink:href="#2" gradientUnits="userSpaceOnUse" gradientTransform="matrix(1,0,0,0.1455399,0,39.255173)"/>
  <linearGradient y1="4.219" x2="0" y2="43.781" id="8" xlink:href="#4" gradientUnits="userSpaceOnUse"/>
  <linearGradient id="9">
   <stop id="Q" stop-color="#d3d7cf"/>
   <stop id="R" offset="1" stop-color="#fff"/>
  </linearGradient>
  <linearGradient x1="4.094" y1="-58.01" x2="15.298" y2="33.906" id="A" xlink:href="#3" gradientUnits="userSpaceOnUse" gradientTransform="translate(0,-1.4999995)"/>
  <radialGradient cx="21.932" cy="25.588" r="16.375" id="B" xlink:href="#9" gradientUnits="userSpaceOnUse" gradientTransform="matrix(1.6866423,-1.5930949,1.7876453,1.8926159,-58.734282,30.216766)"/>
 </defs>
 <g id="1">
  <path d="m 47.453955,45.941494 a 23.076923,3.3586134 0 1 1 -46.153847,0 23.076923,3.3586134 0 1 1 46.153847,0 z" transform="translate(-0.37703133,-2.8001078)" id="C" opacity="0.8" fill="url(#7)"/>
  <rect width="42" height="42" x="3" y="1.5" id="D" fill="#445800" rx="6"/>
  <path d="M 9,4.09375 C 6.2608771,4.09375 4.09375,6.2608771 4.09375,9 l 0,30 c 0,2.739123 2.1671271,4.90625 4.90625,4.90625 l 30,0 c 2.739123,0 4.90625,-2.167127 4.90625,-4.90625 l 0,-30 C 43.90625,6.2608771 41.739123,4.09375 39,4.09375 l -30,0 z" transform="translate(0,-1.4999995)" id="E" fill="#8bb300"/>
  <g id="F">
   <path d="m 16.09375,2.59375 0,14.75 c -1.954936,0.0082 -3.430184,0.03129 -7.125,0.03125 -0.456988,0.0033 -0.8800351,0.268506 -1.0625,0.6875 -0.1824651,0.418993 -0.090103,0.913164 0.21875,1.25 l 15.40625,16.75 c 0.223657,0.239692 0.547221,0.38096 0.875,0.375 0.32778,-0.006 0.628954,-0.158586 0.84375,-0.40625 L 39.90625,19.25 c 0.292011,-0.342509 0.344014,-0.809693 0.15625,-1.21875 -0.187764,-0.409057 -0.581162,-0.685627 -1.03125,-0.6875 -3.704523,-0.006 -5.174438,-0.0018 -7.125,0 l 0,-14.75 -15.8125,0 z" id="S" fill="#638000" display="block"/>
   <path d="m 17.25,2.59375 0,15.90625 c -2.454419,0.0041 -3.981967,0.0313 -8.28125,0.03125 L 24.375,35.28125 39.03125,18.5 c -4.304182,-0.007 -5.824629,-9.88e-4 -8.28125,0 l 0,-15.90625 -13.5,0 z" id="T" fill="url(#B)" display="block"/>
  </g>
  <path d="M 9,4.71875 C 6.5943852,4.71875 4.71875,6.5943852 4.71875,9 l 0,30 c 0,2.405615 1.8756352,4.28125 4.28125,4.28125 l 30,0 c 2.405615,0 4.28125,-1.875635 4.28125,-4.28125 l 0,-30 C 43.28125,6.5943852 41.405615,4.71875 39,4.71875 l -30,0 z" transform="translate(0,-1.4999995)" id="G" opacity="0.8" fill="none" stroke="url(#8)" stroke-linecap="round" stroke-dashoffset="30"/>
  <path d="m 9,2.5937505 c -2.7391229,0 -4.90625,2.1671271 -4.90625,4.90625 l 0,17.1562505 c 12.085208,-5.133143 25.680845,-9.569523 39.8125,-12.53125 l 0,-4.6250005 c 0,-2.7391229 -2.167127,-4.90625 -4.90625,-4.90625 l -30,0 0,0 z" id="H" opacity="0.6" fill="url(#A)"/>
 </g>
</svg>
